<svg id="Grupo_21" data-name="Grupo 21" xmlns="http://www.w3.org/2000/svg" xmlns:xlink="http://www.w3.org/1999/xlink" width="376.945" height="89.924" viewBox="0 0 376.945 89.924">
  <defs>
    <clipPath id="clip-path">
      <rect id="Rectángulo_18" data-name="Rectángulo 18" width="376.945" height="89.924" fill="#666"/>
    </clipPath>
  </defs>
  <g id="Grupo_7" data-name="Grupo 7" transform="translate(0 0)" clip-path="url(#clip-path)">
    <path id="Trazado_11" data-name="Trazado 11" d="M115.238,8.062a12.427,12.427,0,0,0-3.1-1.437,10.384,10.384,0,0,0-3.177-.487,5.853,5.853,0,0,0-4.092,1.427,4.815,4.815,0,0,0-1.568,3.755,4.9,4.9,0,0,0,1.568,3.786,5.808,5.808,0,0,0,4.092,1.436,10.036,10.036,0,0,0,3.136-.5,14.052,14.052,0,0,0,3.136-1.478l.16,5.545a15.777,15.777,0,0,1-3.691,1.391,18.689,18.689,0,0,1-4.118.457,12.236,12.236,0,0,1-4.406-.78,10.884,10.884,0,0,1-3.66-2.267A10.248,10.248,0,0,1,97.066,15.5a10.3,10.3,0,0,1-.823-4.161,10.313,10.313,0,0,1,.823-4.171,10.361,10.361,0,0,1,2.457-3.426,10.833,10.833,0,0,1,3.737-2.262A14.407,14.407,0,0,1,108,.762a16.281,16.281,0,0,1,3.634.406,18.213,18.213,0,0,1,3.593,1.283V8.067Zm9.315,3.252a4.637,4.637,0,0,0,1.187,3.263,3.921,3.921,0,0,0,3.033,1.292,3.816,3.816,0,0,0,2.986-1.292,4.6,4.6,0,0,0,1.2-3.263,4.638,4.638,0,0,0-1.2-3.273,3.9,3.9,0,0,0-2.986-1.262,4,4,0,0,0-3.033,1.262,4.662,4.662,0,0,0-1.187,3.273m-7.131.021a10.359,10.359,0,0,1,.822-4.171,10.386,10.386,0,0,1,2.462-3.427A11.016,11.016,0,0,1,124.342,1.5a13.657,13.657,0,0,1,8.862,0,10.694,10.694,0,0,1,3.634,2.241,9.658,9.658,0,0,1,2.442,3.412,10.53,10.53,0,0,1,.812,4.186,10.46,10.46,0,0,1-.812,4.171,9.683,9.683,0,0,1-2.442,3.4,10.69,10.69,0,0,1-3.66,2.267,12.387,12.387,0,0,1-4.411.78,12.275,12.275,0,0,1-4.406-.78A10.822,10.822,0,0,1,120.7,18.9a9.98,9.98,0,0,1-2.462-3.406,10.3,10.3,0,0,1-.823-4.16Zm25.57,10.234V1.07h7.063V16.3h8.23v5.273Zm17.319,0V1.07h15.011V5.543H167.37v3.57h7.64v4.3h-7.64V17.1h8.205v4.474H160.306Zm36.407-1.2a20.727,20.727,0,0,1-3.784,1.175,18.549,18.549,0,0,1-3.794.395,15.3,15.3,0,0,1-3.727-.426,11.432,11.432,0,0,1-3.084-1.263,10.71,10.71,0,0,1-3.8-3.806,9.846,9.846,0,0,1-1.332-5.12,10.347,10.347,0,0,1,.812-4.186,10.53,10.53,0,0,1,2.482-3.411,11.216,11.216,0,0,1,3.8-2.252,14.669,14.669,0,0,1,4.786-.729,17.92,17.92,0,0,1,3.845.416,20.6,20.6,0,0,1,3.8,1.272V7.252a15.576,15.576,0,0,0-3.172-1.211,11.535,11.535,0,0,0-2.966-.395,6.3,6.3,0,0,0-4.431,1.528,5.332,5.332,0,0,0-1.671,4.124,5.464,5.464,0,0,0,1.486,3.95,5.473,5.473,0,0,0,4.622,1.472,7.659,7.659,0,0,0,.94-.164v-2.3h-2.467V9.96h7.67v10.4Zm3.47-19.3h7.166v20.5h-7.166Zm17.124,10.245a4.591,4.591,0,0,0,1.218,3.263,3.853,3.853,0,0,0,3.008,1.292,3.9,3.9,0,0,0,3.007-1.292,4.613,4.613,0,0,0,1.187-3.263,4.655,4.655,0,0,0-1.187-3.273,3.966,3.966,0,0,0-3.007-1.262,3.914,3.914,0,0,0-3.008,1.262,4.635,4.635,0,0,0-1.218,3.273m-7.125.021A10.527,10.527,0,0,1,211,7.165a10.467,10.467,0,0,1,2.467-3.427A10.979,10.979,0,0,1,217.1,1.5a12.923,12.923,0,0,1,4.431-.739,13.076,13.076,0,0,1,4.447.739,10.791,10.791,0,0,1,3.634,2.241,10.229,10.229,0,0,1,2.447,3.412,10.8,10.8,0,0,1,.8,4.186,10.73,10.73,0,0,1-.8,4.171,10.108,10.108,0,0,1-2.447,3.4,11.091,11.091,0,0,1-3.66,2.267,12.442,12.442,0,0,1-4.421.78,12.227,12.227,0,0,1-4.4-.78,10.879,10.879,0,0,1-3.661-2.267,10.142,10.142,0,0,1-2.467-3.406,10.388,10.388,0,0,1-.812-4.16ZM111.3,52.451h8.734l-4.3-10.87ZM96.623,63.117l13.726-29.374h10.713l13.4,29.374H124.265L122.3,58.068h-13.31L106.9,63.117Zm39.44,0V33.742h9.377l8.652,11.819,8.673-11.819H172.1V63.117H161.946V47.326l-7.85,10.7-7.875-10.7v15.79H136.063Zm41.336,0V33.742h21.468V40.15H187.506v5.12h10.945v6.14H187.506v5.283h11.741v6.423ZM213.39,45.8h1.922a6.567,6.567,0,0,0,3.773-.811,2.9,2.9,0,0,0,1.106-2.607,2.975,2.975,0,0,0-1.106-2.616,6.113,6.113,0,0,0-3.568-.821H213.39V45.8ZM203.232,63.117V33.742h13.479c4.488,0,7.835.718,9.979,2.139a7.3,7.3,0,0,1,3.238,6.556,6.783,6.783,0,0,1-1.125,3.919,7.975,7.975,0,0,1-3.45,2.683,6.415,6.415,0,0,1,1.9,1.595A11.656,11.656,0,0,1,228.8,53.3l4.343,9.809H223.08L220.2,56.524a16.821,16.821,0,0,0-2.647-4.648,3.723,3.723,0,0,0-2.74-1.072H213.39V63.111H203.232Zm31.9-29.374h10.25V63.117H235.13Zm41.527,10.029a18.7,18.7,0,0,0-4.432-2.072,14.571,14.571,0,0,0-4.555-.687,8.381,8.381,0,0,0-5.865,2.041,6.909,6.909,0,0,0-2.216,5.366,6.985,6.985,0,0,0,2.216,5.4,8.233,8.233,0,0,0,5.865,2.062,14.076,14.076,0,0,0,4.5-.708,19.807,19.807,0,0,0,4.488-2.118L276.889,61a22.8,22.8,0,0,1-5.285,1.971,25.532,25.532,0,0,1-5.9.646,18.112,18.112,0,0,1-6.328-1.087,16.49,16.49,0,0,1-5.228-3.238,14.863,14.863,0,0,1-3.532-4.9,14.712,14.712,0,0,1-1.167-5.925,14.968,14.968,0,0,1,1.167-5.981,15.128,15.128,0,0,1,3.532-4.909,15.338,15.338,0,0,1,5.341-3.232,20.419,20.419,0,0,1,6.8-1.051,22.9,22.9,0,0,1,5.2.6,25.252,25.252,0,0,1,5.151,1.837v8.044Zm15.515,8.685h8.754L296.6,41.586ZM277.516,63.121l13.7-29.373h10.734l13.387,29.373H305.152l-1.984-5.047H289.884l-2.093,5.047Zm39.418,0V33.748h9.254l13.155,14.718V33.748H349.4V63.121h-9.243l-13.15-14.7v14.7Zm46.6-14.7a6.646,6.646,0,0,0,1.7,4.678,5.993,5.993,0,0,0,8.625,0,6.7,6.7,0,0,0,1.712-4.678,6.63,6.63,0,0,0-1.712-4.669,5.96,5.96,0,0,0-8.625,0,6.585,6.585,0,0,0-1.7,4.669m-10.209.045a14.164,14.164,0,0,1,4.719-10.89,15.139,15.139,0,0,1,5.176-3.2,19.08,19.08,0,0,1,12.7,0,15.59,15.59,0,0,1,5.2,3.2,14.577,14.577,0,0,1,3.491,4.878,15.207,15.207,0,0,1,1.167,6.018A14.22,14.22,0,0,1,381.122,59.3a16.1,16.1,0,0,1-5.244,3.237,18.325,18.325,0,0,1-6.328,1.087,18.008,18.008,0,0,1-6.313-1.087,15.826,15.826,0,0,1-5.2-3.237,14.578,14.578,0,0,1-3.573-4.9,15.164,15.164,0,0,1-1.152-5.925ZM95.672,27.156H385.091v1.38H95.667v-1.38Z" transform="translate(-8.835 -0.069)" fill="#666" fill-rule="evenodd"/>
    <path id="Trazado_12" data-name="Trazado 12" d="M48.685,57.552a16.652,16.652,0,0,0,4.183.964,26.572,26.572,0,0,0,3.2-.025v-.667c-1.079.046-2.159.073-3.177.026a20.97,20.97,0,0,1-4.39-1.011,7.238,7.238,0,0,0-4.549.288c.015.205.031.416.046.625a6.717,6.717,0,0,1,4.683-.2Z" transform="translate(-4.059 -5.227)" fill="#666"/>
    <rect id="Rectángulo_12" data-name="Rectángulo 12" width="2.478" height="2.155" transform="translate(25.585 45.216)" fill="#666"/>
    <path id="Trazado_13" data-name="Trazado 13" d="M48.685,55.456a16.457,16.457,0,0,0,4.183.965,27.932,27.932,0,0,0,3.2-.021v-.672c-1.079.045-2.159.076-3.177.02a20.361,20.361,0,0,1-4.39-1.01,7.308,7.308,0,0,0-4.549.287l.046.631a6.718,6.718,0,0,1,4.683-.205Z" transform="translate(-4.059 -5.033)" fill="#666"/>
    <path id="Trazado_14" data-name="Trazado 14" d="M48.685,53.354a16.892,16.892,0,0,0,4.183.965,26.765,26.765,0,0,0,3.2-.026v-.666c-1.079.045-2.159.072-3.177.02a20.36,20.36,0,0,1-4.39-1.01,7.27,7.27,0,0,0-4.549.292c.015.211.031.42.046.625a6.717,6.717,0,0,1,4.683-.2Z" transform="translate(-4.059 -4.839)" fill="#666"/>
    <path id="Trazado_15" data-name="Trazado 15" d="M31.188,54.316a16.954,16.954,0,0,0,4.19-.964,6.715,6.715,0,0,1,4.683.2c.015-.211.031-.421.046-.626a7.227,7.227,0,0,0-4.545-.292,20.044,20.044,0,0,1-4.39,1.011c-1.017.056-2.1.025-3.177-.021v.667a26.746,26.746,0,0,0,3.2.025Z" transform="translate(-2.585 -4.838)" fill="#666"/>
    <path id="Trazado_16" data-name="Trazado 16" d="M36.2,49.888a5.489,5.489,0,0,1,4.226.2c.01-.21.025-.42.035-.631a5.959,5.959,0,0,0-4.1-.292,16.617,16.617,0,0,1-3.959,1.01c-.174.011-.344.021-.519.021v.683q.271-.008.54-.031a13.869,13.869,0,0,0,3.779-.965Z" transform="translate(-2.944 -4.518)" fill="#666"/>
    <path id="Trazado_17" data-name="Trazado 17" d="M31.188,58.516a16.517,16.517,0,0,0,4.19-.964,6.741,6.741,0,0,1,4.683.2c.015-.211.031-.421.046-.626a7.226,7.226,0,0,0-4.545-.287,20.969,20.969,0,0,1-4.39,1.01c-1.017.052-2.1.021-3.177-.025v.667a26.746,26.746,0,0,0,3.2.025Z" transform="translate(-2.585 -5.227)" fill="#666"/>
    <path id="Trazado_18" data-name="Trazado 18" d="M31.188,60.619a16.715,16.715,0,0,0,4.19-.959,6.685,6.685,0,0,1,4.683.2l.046-.632a7.265,7.265,0,0,0-4.545-.292,20.044,20.044,0,0,1-4.39,1.011c-1.017.056-2.1.025-3.177-.021V60.6a27.712,27.712,0,0,0,3.2.021Z" transform="translate(-2.585 -5.421)" fill="#666"/>
    <path id="Trazado_19" data-name="Trazado 19" d="M36.2,51.544a5.489,5.489,0,0,1,4.226.2c.01-.21.025-.42.035-.631a5.959,5.959,0,0,0-4.1-.292,16.88,16.88,0,0,1-3.959,1.01c-.174.011-.344.015-.519.021v.683q.271-.008.54-.031a13.869,13.869,0,0,0,3.779-.965Z" transform="translate(-2.944 -4.671)" fill="#666"/>
    <path id="Trazado_20" data-name="Trazado 20" d="M48.685,59.653a16.694,16.694,0,0,0,4.183.959,27.726,27.726,0,0,0,3.2-.021V59.92c-1.079.046-2.159.077-3.177.02a19.991,19.991,0,0,1-4.39-1.01,7.27,7.27,0,0,0-4.549.292l.046.631a6.687,6.687,0,0,1,4.683-.2Z" transform="translate(-4.059 -5.42)" fill="#666"/>
    <path id="Trazado_21" data-name="Trazado 21" d="M30.816,68.813H32.1l-.633-1.6Z" transform="translate(-2.846 -6.207)" fill="#666"/>
    <path id="Trazado_22" data-name="Trazado 22" d="M40.084,82.846c12.143-5.165,25.2-20.509,25.483-33.492V12.361H64.559V41.237H40.608V12.361H39.6V41.237H15.65V12.361H14.606V49.353c.289,12.983,13.346,28.327,25.478,33.492M26.333,65.056a2.14,2.14,0,0,1-1.3.339,2.726,2.726,0,0,1-.673-.077,2.967,2.967,0,0,1-.658-.246V63.886a3.156,3.156,0,0,0,.617.334,1.428,1.428,0,0,0,.514.118.7.7,0,0,0,.345-.077.244.244,0,0,0,.118-.226c0-.1-.143-.236-.437-.389a1.716,1.716,0,0,0-.181-.1,2.468,2.468,0,0,1-.755-.61,1.1,1.1,0,0,1-.226-.688,1.193,1.193,0,0,1,.421-.944,1.582,1.582,0,0,1,1.075-.369,2.55,2.55,0,0,1,.761.108,2.43,2.43,0,0,1,.658.354v1.139A2.916,2.916,0,0,0,26,62.111a1.16,1.16,0,0,0-.519-.129.513.513,0,0,0-.293.073.242.242,0,0,0-.1.205.286.286,0,0,0,.093.21,2.385,2.385,0,0,0,.473.3,2.79,2.79,0,0,1,.925.657,1.1,1.1,0,0,1,.2.677,1.137,1.137,0,0,1-.452.959Zm4.893.261-.288-.743H28.98l-.308.743H27.161l2.02-4.324h1.578l1.969,4.324ZM36.49,64.2v1.113H33.273V60.993h1.49V64.2ZM44.6,78.08H40.726v-.216h.16a1.191,1.191,0,0,0,.653-.133.315.315,0,0,0,.133-.271.66.66,0,0,0-.035-.216c-.011-.035-.067-.18-.181-.436l-.3-.708a4.667,4.667,0,0,1-1.362.184,5.21,5.21,0,0,1-1.681-.256l-.247.559a1.772,1.772,0,0,0-.164.641.542.542,0,0,0,.272.5,2.138,2.138,0,0,0,.781.143v.215H36.095V77.87a1.193,1.193,0,0,0,.7-.359,4.484,4.484,0,0,0,.683-1.205l.2-.447c-.066-.031-.128-.062-.19-.092a3.677,3.677,0,0,1-1.553-1.488,4.184,4.184,0,0,1-.545-2.058,4.4,4.4,0,0,1,2.236-3.791,4.431,4.431,0,0,1,2.179-.569,4.93,4.93,0,0,1,1.8.369,3.147,3.147,0,0,0,.7.221.451.451,0,0,0,.329-.143.784.784,0,0,0,.185-.441h.231v2.79h-.231a2.968,2.968,0,0,0-.982-1.672,2.477,2.477,0,0,0-1.619-.58,2.408,2.408,0,0,0-1.388.431,2.509,2.509,0,0,0-.92,1.134,5.1,5.1,0,0,0-.375,2,6.717,6.717,0,0,0,.272,1.97,3.418,3.418,0,0,0,.37.811l2.158-4.807h.113L42.6,74.812a3.541,3.541,0,0,0,.663-.564v.7a3.133,3.133,0,0,1-.442.365l.519,1.179a3.966,3.966,0,0,0,.679,1.17.923.923,0,0,0,.57.215v.216ZM36.64,62.111V60.993h4.2v1.118H39.493v3.206H37.986V62.111H36.64Zm4.95-1.118H43.1v4.324H41.59Zm5.84,4.324H44.207V60.993H45.7V64.2H47.43Zm3.958,0H48.166V60.993h1.49V64.2h1.733ZM56.4,64.04a2.135,2.135,0,0,1-.514.718,2.324,2.324,0,0,1-.772.477,2.8,2.8,0,0,1-1.861,0,2.324,2.324,0,0,1-.772-.477,2.041,2.041,0,0,1-.519-.723,2.1,2.1,0,0,1-.174-.872,2.087,2.087,0,0,1,.693-1.6,2.18,2.18,0,0,1,.761-.472,2.915,2.915,0,0,1,1.872,0,2.277,2.277,0,0,1,.766.472,2.072,2.072,0,0,1,.514.718,2.226,2.226,0,0,1,.17.882,2.2,2.2,0,0,1-.17.878ZM40.29,44.869a7.693,7.693,0,0,1,6.934-.267c2.128.867,4.575.687,6.982.631q.693,6.38,1.4,12.758c-1.578,0-3.156.108-4.729,0a19.888,19.888,0,0,1-5.044-1.215,6.428,6.428,0,0,0-5.537.585V44.869Zm-14.4.364c2.405.056,4.848.241,6.981-.631a7.693,7.693,0,0,1,6.934.267V57.361a6.429,6.429,0,0,0-5.537-.585,20.171,20.171,0,0,1-5.043,1.215c-1.573.108-3.151,0-4.729,0q.7-6.37,1.4-12.758Zm-3.219.652H24.05V46.1a.9.9,0,0,0-.627.154l-1.352,12.7,14.759-.395v-.01h.463v.472h5.392v-.472h.467v.01l14.759.395-1.351-12.7a.917.917,0,0,0-.633-.154v-.215h1.378L58.75,59.438h-.791v-.025l-14.81-.4v.462H36.824v-.462l-14.81.4v.025h-.791l1.44-13.553Z" transform="translate(-1.349 -1.141)" fill="#666"/>
    <path id="Trazado_23" data-name="Trazado 23" d="M40.954,81.275c.052.046.108.093.16.133a1.513,1.513,0,0,0,.143.1h2.005l-1.187-2.745Z" transform="translate(-3.782 -7.274)" fill="#666"/>
    <path id="Trazado_24" data-name="Trazado 24" d="M48.685,51.562a16.893,16.893,0,0,0,4.183.964,28.81,28.81,0,0,0,3.2-.025v-.672c-1.079.046-2.159.072-3.177.021a21.022,21.022,0,0,1-4.39-1.006,7.269,7.269,0,0,0-4.549.287c.015.211.031.416.046.626a6.712,6.712,0,0,1,4.683-.2Z" transform="translate(-4.059 -4.673)" fill="#666"/>
    <path id="Trazado_25" data-name="Trazado 25" d="M71.6,49.42C71.289,66.087,54.85,84.975,39.392,90.094c-.031.01-.067.021-.1.036l-.128-.046C23.718,84.949,7.293,66.071,6.98,49.42V12.361H6V49.429C6.321,66.507,23.029,85.693,38.8,90.93c.514.175.3.18.8.011,15.772-5.228,32.51-24.424,32.823-41.511V12.361H71.6Z" transform="translate(-0.554 -1.141)" fill="#666"/>
    <path id="Trazado_26" data-name="Trazado 26" d="M48.685,49.827a16.652,16.652,0,0,0,4.183.964,27.721,27.721,0,0,0,3.2-.02V50.1c-1.079.046-2.159.073-3.177.021a20.633,20.633,0,0,1-4.39-1.01,7.27,7.27,0,0,0-4.549.292l.046.631a6.687,6.687,0,0,1,4.683-.2Z" transform="translate(-4.059 -4.513)" fill="#666"/>
    <path id="Trazado_27" data-name="Trazado 27" d="M58.132,67.269a.826.826,0,0,0-.637.272,1.062,1.062,0,0,0,0,1.374.87.87,0,0,0,1.264,0,1.065,1.065,0,0,0,0-1.374.834.834,0,0,0-.627-.272" transform="translate(-5.286 -6.212)" fill="#666"/>
    <path id="Trazado_28" data-name="Trazado 28" d="M31.188,56.421a16.713,16.713,0,0,0,4.19-.965,6.722,6.722,0,0,1,4.683.205c.015-.215.031-.42.046-.631a7.3,7.3,0,0,0-4.545-.287,20.36,20.36,0,0,1-4.39,1.01c-1.017.056-2.1.026-3.177-.02v.672a27.918,27.918,0,0,0,3.2.021Z" transform="translate(-2.585 -5.033)" fill="#666"/>
    <path id="Trazado_29" data-name="Trazado 29" d="M62.069,7.2h1.583l-.781-2.068Z" transform="translate(-5.732 -0.474)" fill="#666"/>
    <path id="Trazado_30" data-name="Trazado 30" d="M0,.006V4.6A1.535,1.535,0,0,0,1.532,6.131h.257A1.532,1.532,0,0,1,3.321,7.619V9.864A1.317,1.317,0,0,0,4.6,11.213H73.051a1.3,1.3,0,0,0,1.249-1.1V7.659a1.535,1.535,0,0,1,1.531-1.533h.2A1.535,1.535,0,0,0,77.563,4.6V0H0Zm5.28,4.7a2.515,2.515,0,0,1-.535.063,1.622,1.622,0,0,1-.575-.1,1.545,1.545,0,0,1-.478-.3,1.3,1.3,0,0,1-.319-.446,1.318,1.318,0,0,1-.108-.539A1.312,1.312,0,0,1,3.691,2.4,1.3,1.3,0,0,1,4.18,2.1a1.738,1.738,0,0,1,.617-.1,2.143,2.143,0,0,1,.477.056,2.269,2.269,0,0,1,.468.17v.733a1.745,1.745,0,0,0-.4-.19,1.419,1.419,0,0,0-.417-.066.753.753,0,0,0-.535.19.63.63,0,0,0-.2.487.665.665,0,0,0,.2.5.759.759,0,0,0,.535.183,1.379,1.379,0,0,0,.407-.06,1.841,1.841,0,0,0,.406-.2l.025.722a2.157,2.157,0,0,1-.483.181Zm3.6-.78a1.491,1.491,0,0,1-.319.447,1.517,1.517,0,0,1-.478.3,1.612,1.612,0,0,1-.576.1,1.629,1.629,0,0,1-.575-.1,1.457,1.457,0,0,1-.473-.3,1.358,1.358,0,0,1-.324-.447,1.409,1.409,0,0,1,0-1.082A1.285,1.285,0,0,1,6.452,2.4a1.364,1.364,0,0,1,.473-.289,1.65,1.65,0,0,1,.576-.1,1.7,1.7,0,0,1,.581.1,1.364,1.364,0,0,1,.473.289,1.335,1.335,0,0,1,.319.446,1.495,1.495,0,0,1,0,1.088Zm2.478.791h-2V2.048h.92V4.033h1.075Zm2.256,0h-2V2.048h1.959v.584H12.538V3.1h1v.565h-1v.478h1.069v.584Zm2.756-1.867a3.432,3.432,0,0,0-.411-.16,1.477,1.477,0,0,0-.391-.052.811.811,0,0,0-.575.2.691.691,0,0,0-.221.538.7.7,0,0,0,.2.518.669.669,0,0,0,.5.2.322.322,0,0,0,.1-.01c.036-.005.077-.015.123-.025v-.3h-.324V3.207h1V4.56a2.639,2.639,0,0,1-.488.155,2.381,2.381,0,0,1-.5.051,2,2,0,0,1-.484-.057,1.427,1.427,0,0,1-.406-.169,1.4,1.4,0,0,1-.5-.492,1.287,1.287,0,0,1-.174-.667,1.318,1.318,0,0,1,.108-.544,1.285,1.285,0,0,1,.324-.447,1.367,1.367,0,0,1,.5-.291,1.806,1.806,0,0,1,.622-.1,2.3,2.3,0,0,1,.5.057,2.983,2.983,0,0,1,.5.168v.627ZM17.756,4.72h-.936V2.047h.936Zm2.9-.349a1.531,1.531,0,0,1-.478.3,1.666,1.666,0,0,1-1.151,0,1.545,1.545,0,0,1-.478-.3,1.287,1.287,0,0,1-.432-.985,1.312,1.312,0,0,1,.427-.989,1.376,1.376,0,0,1,.473-.288,1.7,1.7,0,0,1,1.162,0,1.319,1.319,0,0,1,.473.288,1.271,1.271,0,0,1,.319.447,1.425,1.425,0,0,1,.107.543,1.336,1.336,0,0,1-.107.544,1.391,1.391,0,0,1-.319.447Zm5.392,4.377-.354-.96H23.3l-.376.96H21.062L23.54,3.16h1.932l2.416,5.588H26.053Zm8.626,0H32.85v-3L31.436,7.782,30.012,5.746v3h-1.83V3.16h1.692l1.562,2.253L33,3.16H34.68Zm4.9,0H35.636V3.16h3.876V4.38H37.461v.976h1.974V6.525H37.461V7.531h2.118V8.747Zm4.3,0-.519-1.253a3.227,3.227,0,0,0-.478-.887.64.64,0,0,0-.494-.2h-.262V8.747h-1.83V3.16h2.432a3.2,3.2,0,0,1,1.8.4,1.424,1.424,0,0,1,.586,1.253,1.345,1.345,0,0,1-.206.743,1.479,1.479,0,0,1-.622.512,1.133,1.133,0,0,1,.344.3,2.161,2.161,0,0,1,.278.507l.781,1.868H43.877Zm4.025,0H46.051V3.16H47.9Zm4.73-.025a4.435,4.435,0,0,1-1.064.122,2.978,2.978,0,0,1-1.142-.209,2.907,2.907,0,0,1-.94-.622,2.766,2.766,0,0,1-.637-.928,2.864,2.864,0,0,1-.211-1.129,3.028,3.028,0,0,1,.211-1.138,2.781,2.781,0,0,1,.637-.934,2.7,2.7,0,0,1,.961-.615,3.466,3.466,0,0,1,1.229-.2,3.842,3.842,0,0,1,.935.113,4.426,4.426,0,0,1,.926.349V5.058a3.494,3.494,0,0,0-.8-.395,2.6,2.6,0,0,0-.818-.133,1.452,1.452,0,0,0-1.058.39,1.35,1.35,0,0,0-.4,1.02,1.364,1.364,0,0,0,.4,1.026,1.449,1.449,0,0,0,1.058.4,2.563,2.563,0,0,0,.808-.133,3.649,3.649,0,0,0,.807-.4l.046,1.513a4.065,4.065,0,0,1-.957.369Zm6.05.025-.354-.96h-2.4l-.376.96H53.7L56.173,3.16h1.933l2.416,5.588Zm7.979,0H64.994l-2.37-2.8v2.8H60.81V3.16h1.671l2.37,2.8V3.16h1.814V8.747Zm6.354-1.653a2.667,2.667,0,0,1-.633.924,2.91,2.91,0,0,1-.94.621A3.1,3.1,0,0,1,70.3,8.85a2.985,2.985,0,0,1-1.136-.211,2.837,2.837,0,0,1-.941-.621,2.8,2.8,0,0,1-.643-.929,2.959,2.959,0,0,1-.211-1.128,3.033,3.033,0,0,1,.211-1.139,2.8,2.8,0,0,1,.638-.933,2.73,2.73,0,0,1,.935-.611,3.183,3.183,0,0,1,1.142-.206,3.09,3.09,0,0,1,1.146.206,2.762,2.762,0,0,1,.936.611,2.643,2.643,0,0,1,.632.929,3.008,3.008,0,0,1,.211,1.138,2.984,2.984,0,0,1-.211,1.134Z" transform="translate(0 0)" fill="#666"/>
    <path id="Trazado_31" data-name="Trazado 31" d="M77.336,5.2a1,1,0,0,0-.776.344,1.294,1.294,0,0,0-.309.887,1.285,1.285,0,0,0,.309.888,1.028,1.028,0,0,0,1.552,0,1.285,1.285,0,0,0,.309-.888,1.263,1.263,0,0,0-.309-.887.987.987,0,0,0-.776-.344" transform="translate(-7.042 -0.48)" fill="#666"/>
    <path id="Trazado_32" data-name="Trazado 32" d="M21.545,3.08a.519.519,0,0,0-.4.17A.592.592,0,0,0,21,3.675a.6.6,0,0,0,.154.426.542.542,0,0,0,.4.169.512.512,0,0,0,.39-.169.61.61,0,0,0,.154-.426.607.607,0,0,0-.154-.426.508.508,0,0,0-.39-.17" transform="translate(-1.939 -0.284)" fill="#666"/>
    <path id="Trazado_33" data-name="Trazado 33" d="M8.214,3.08a.5.5,0,0,0-.39.17.589.589,0,0,0-.154.426.6.6,0,0,0,.154.426.536.536,0,0,0,.781,0,.647.647,0,0,0,0-.851.5.5,0,0,0-.39-.17" transform="translate(-0.708 -0.284)" fill="#666"/>
    <path id="Trazado_34" data-name="Trazado 34" d="M26.121,7.2H27.7l-.777-2.068Z" transform="translate(-2.412 -0.474)" fill="#666"/>
    <path id="Trazado_35" data-name="Trazado 35" d="M46.795,4.584h-.386v1.3h.355a1.142,1.142,0,0,0,.679-.154.569.569,0,0,0,.2-.493.586.586,0,0,0-.2-.5,1.032,1.032,0,0,0-.648-.159" transform="translate(-4.286 -0.423)" fill="#666"/>
    <path id="Trazado_36" data-name="Trazado 36" d="M76.116,26.142A2.1,2.1,0,0,0,76,25.413a1.593,1.593,0,0,0-.386-.569,1.67,1.67,0,0,0-.6-.395,2.282,2.282,0,0,0-1.512,0,1.655,1.655,0,0,0-.6.4,1.68,1.68,0,0,0-.39.57,1.976,1.976,0,0,0-.123.728v1.57h3.727V26.142Zm-.946.467H73.34V26.2a.68.68,0,0,1,.251-.549,1.016,1.016,0,0,1,.663-.211,1,1,0,0,1,.658.211.68.68,0,0,1,.251.549v.41Z" transform="translate(-6.685 -2.246)" fill="#666"/>
    <rect id="Rectángulo_13" data-name="Rectángulo 13" width="3.727" height="1.103" transform="translate(65.704 26.758)" fill="#666"/>
    <path id="Trazado_37" data-name="Trazado 37" d="M76.116,31.8h-.961v1.267H72.389v1.087h3.727Z" transform="translate(-6.685 -2.936)" fill="#666"/>
    <path id="Trazado_38" data-name="Trazado 38" d="M76.116,22.1l-.643-.221V20.446l.643-.209v-1.1L72.388,20.58v1.155l3.728,1.478Zm-1.352-.473-1.378-.477,1.378-.461Z" transform="translate(-6.685 -1.767)" fill="#666"/>
    <rect id="Rectángulo_14" data-name="Rectángulo 14" width="3.727" height="1.103" transform="translate(65.704 32.474)" fill="#666"/>
    <path id="Trazado_39" data-name="Trazado 39" d="M72.389,52.6H74.26l-1.872,1.421v.985h3.727V53.929H74.255l1.861-1.41v-1H72.389Z" transform="translate(-6.685 -4.757)" fill="#666"/>
    <path id="Trazado_40" data-name="Trazado 40" d="M76.116,16.312A2.122,2.122,0,0,0,76,15.584a1.661,1.661,0,0,0-.386-.575,1.844,1.844,0,0,0-.6-.4,2.3,2.3,0,0,0-1.512,0,1.717,1.717,0,0,0-.6.4,1.688,1.688,0,0,0-.39.575,2,2,0,0,0-.123.728v1.57h3.727Zm-.946.462H73.34v-.41a.669.669,0,0,1,.251-.544.987.987,0,0,1,.663-.211.972.972,0,0,1,.658.211.669.669,0,0,1,.251.544v.41Z" transform="translate(-6.685 -1.338)" fill="#666"/>
    <path id="Trazado_41" data-name="Trazado 41" d="M76.117,39.613a1.728,1.728,0,0,0-.268-1.052.942.942,0,0,0-.8-.354.926.926,0,0,0-.6.19.985.985,0,0,0-.339.549.977.977,0,0,0-.329-.42.85.85,0,0,0-.488-.144.745.745,0,0,0-.673.354A1.975,1.975,0,0,0,72.4,39.8v1.4h3.727V39.617Zm-2.242.5h-.812V39.88a.663.663,0,0,1,.093-.406.367.367,0,0,1,.309-.118.41.41,0,0,1,.324.108.7.7,0,0,1,.093.426V40.1Zm1.578,0h-.9v-.251a.687.687,0,0,1,.108-.436.433.433,0,0,1,.36-.139.374.374,0,0,1,.334.139.847.847,0,0,1,.1.457v.231Z" transform="translate(-6.686 -3.528)" fill="#666"/>
    <path id="Trazado_42" data-name="Trazado 42" d="M62.81,78.276a2.354,2.354,0,0,0,.519.565A2.275,2.275,0,0,0,64,79.2a1.916,1.916,0,0,0,.725.077,1.685,1.685,0,0,0,1.511-1.257,1.743,1.743,0,0,0,.025-.7A1.923,1.923,0,0,0,66,76.649a2.062,2.062,0,0,0-.518-.564,2.309,2.309,0,0,0-.68-.369,1.9,1.9,0,0,0-.719-.083,1.646,1.646,0,0,0-.669.2,1.7,1.7,0,0,0-.529.451,1.792,1.792,0,0,0-.314.621,1.734,1.734,0,0,0-.025.693,1.9,1.9,0,0,0,.257.683Zm.947-1.323a.57.57,0,0,1,.467-.221.967.967,0,0,1,.581.221.926.926,0,0,1,.355.507.577.577,0,0,1-.575.729A.924.924,0,0,1,64,77.968a.909.909,0,0,1-.355-.508.584.584,0,0,1,.1-.513Z" transform="translate(-5.774 -6.984)" fill="#666"/>
    <path id="Trazado_43" data-name="Trazado 43" d="M60.468,80.592l2.051,1.847.745-.821-2.056-1.842.658-.739-.715-.641L59.09,80.685l.714.641Z" transform="translate(-5.457 -7.24)" fill="#666"/>
    <path id="Trazado_44" data-name="Trazado 44" d="M69.225,73.7l-1.342-.806.077-.128a.365.365,0,0,1,.268-.184,2.311,2.311,0,0,1,.658.056l.874.164.56-.924-1.305-.241a1.7,1.7,0,0,0-.37-.036.838.838,0,0,0-.283.072.886.886,0,0,0-.1-.492,1.138,1.138,0,0,0-1.26-.5,1.782,1.782,0,0,0-.786.785l-.751,1.242,3.2,1.913.565-.934Zm-1.779-1.313-.108.18-.745-.447.118-.2A.585.585,0,0,1,67,71.648a.4.4,0,0,1,.345.072.4.4,0,0,1,.226.272.644.644,0,0,1-.123.4Z" transform="translate(-6.045 -6.522)" fill="#666"/>
    <path id="Trazado_45" data-name="Trazado 45" d="M70.064,66.475a1.12,1.12,0,0,0,.617.072,1.986,1.986,0,0,0,.693-.318c.026-.021.073-.052.129-.093q.308-.215.432-.169a.233.233,0,0,1,.143.153.413.413,0,0,1-.035.261.991.991,0,0,1-.231.313A2.463,2.463,0,0,1,71.37,67l.95.385a1.966,1.966,0,0,0,.627-.8,1.389,1.389,0,0,0,.083-.99,1.036,1.036,0,0,0-.643-.615,1.059,1.059,0,0,0-.6-.082,2.377,2.377,0,0,0-.781.415,1.625,1.625,0,0,1-.365.226.282.282,0,0,1-.2,0,.22.22,0,0,1-.139-.139.3.3,0,0,1,.026-.225.714.714,0,0,1,.241-.308,2.107,2.107,0,0,1,.508-.277l-.915-.369a1.7,1.7,0,0,0-.462.333,1.5,1.5,0,0,0-.3.477,1.057,1.057,0,0,0,0,.847,1.132,1.132,0,0,0,.643.6Z" transform="translate(-6.401 -5.931)" fill="#666"/>
    <path id="Trazado_46" data-name="Trazado 46" d="M71.953,68.627l-.73-.359-.555,1.145-.606-.3.519-1.057-.7-.344-.515,1.056-.585-.282.535-1.1-.73-.354-1.013,2.078,3.352,1.632Z" transform="translate(-6.24 -6.19)" fill="#666"/>
    <path id="Trazado_47" data-name="Trazado 47" d="M51.874,91.42l-.447-.683-1.059.693L50,90.866l.992-.642-.427-.656-.988.641-.355-.538L50.249,89l-.442-.687-1.943,1.262,2.03,3.124Z" transform="translate(-4.42 -8.156)" fill="#666"/>
    <path id="Trazado_48" data-name="Trazado 48" d="M74.191,62.932l-1.275-.39.113-.359a1.574,1.574,0,0,0,.01-1.1,1.151,1.151,0,0,0-.771-.61,1.065,1.065,0,0,0-.946.082,1.654,1.654,0,0,0-.592.934L70.3,62.88l3.568,1.088.319-1.042Zm-1.882-.8-.062.2-.971-.3.072-.226a.538.538,0,0,1,.231-.339.508.508,0,0,1,.4-.005.536.536,0,0,1,.335.236.562.562,0,0,1,0,.431Z" transform="translate(-6.492 -5.578)" fill="#666"/>
    <path id="Trazado_49" data-name="Trazado 49" d="M56.811,87.74l-.853-1.02.283-.241a1.531,1.531,0,0,0,.606-.908,1.155,1.155,0,0,0-.319-.934,1.059,1.059,0,0,0-.838-.441,1.631,1.631,0,0,0-1.007.462l-1.116.933,2.4,2.847.838-.7ZM55.67,86.048l-.164.139-.648-.775.175-.143a.537.537,0,0,1,.38-.164.5.5,0,0,1,.339.216.534.534,0,0,1,.154.379.576.576,0,0,1-.237.354Z" transform="translate(-4.947 -7.775)" fill="#666"/>
    <path id="Trazado_50" data-name="Trazado 50" d="M47.625,94.033l-.8-1.339.128-.072a.363.363,0,0,1,.324-.036,2.167,2.167,0,0,1,.55.359l.7.554.93-.554-1.038-.826a1.6,1.6,0,0,0-.319-.205.686.686,0,0,0-.278-.072.973.973,0,0,0,.139-.482.9.9,0,0,0-.154-.487.981.981,0,0,0-.724-.534,1.747,1.747,0,0,0-1.065.323l-1.249.749L46.689,94.6l.936-.565Zm-1.131-1.877-.447-.744.2-.118a.569.569,0,0,1,.385-.108.418.418,0,0,1,.278.216.408.408,0,0,1,.067.343.647.647,0,0,1-.3.293l-.18.107Z" transform="translate(-4.134 -8.342)" fill="#666"/>
    <path id="Trazado_51" data-name="Trazado 51" d="M51.951,88.963a2.039,2.039,0,0,0,.755.087,1.211,1.211,0,0,1,.155-.01c.251-.021.406.005.457.077a.219.219,0,0,1,.051.211.453.453,0,0,1-.164.205,1.069,1.069,0,0,1-.36.148,2.2,2.2,0,0,1-.539.036l.616.816a2.32,2.32,0,0,0,.515-.123,2,2,0,0,0,.432-.236,1.428,1.428,0,0,0,.585-.805,1.06,1.06,0,0,0-.236-.862,1.123,1.123,0,0,0-.473-.379,2.3,2.3,0,0,0-.88-.046,1.362,1.362,0,0,1-.427,0,.277.277,0,0,1-.164-.108.191.191,0,0,1-.046-.184.341.341,0,0,1,.133-.18.81.81,0,0,1,.37-.143,2.143,2.143,0,0,1,.581.025l-.591-.785a1.466,1.466,0,0,0-1.07.3,1.073,1.073,0,0,0-.437.728,1.183,1.183,0,0,0,.735,1.211Z" transform="translate(-4.729 -8.006)" fill="#666"/>
    <path id="Trazado_52" data-name="Trazado 52" d="M60.975,83.981,60.4,83.4l-.895.9-.473-.472L59.865,83l-.55-.554-.833.831-.463-.457.864-.868-.571-.575-1.64,1.636,2.638,2.637Z" transform="translate(-5.234 -7.515)" fill="#666"/>
    <path id="Trazado_53" data-name="Trazado 53" d="M72.045,58.71a1.992,1.992,0,0,0,.53.5,2.226,2.226,0,0,0,.714.281,2.042,2.042,0,0,0,.766.031,1.819,1.819,0,0,0,.689-.246,1.668,1.668,0,0,0,.519-.461,1.71,1.71,0,0,0,.282-.632,1.672,1.672,0,0,0,.005-.7,1.718,1.718,0,0,0-.288-.643,1.871,1.871,0,0,0-.525-.5,2.161,2.161,0,0,0-.714-.277,2.22,2.22,0,0,0-.772-.036,1.846,1.846,0,0,0-.689.236,1.65,1.65,0,0,0-.514.462,1.726,1.726,0,0,0-.278.641,1.666,1.666,0,0,0-.005.693,1.546,1.546,0,0,0,.283.631Zm1.121-1.5a.917.917,0,0,1,.617-.055.929.929,0,0,1,.539.3.574.574,0,0,1,.139.5.591.591,0,0,1-.329.406.957.957,0,0,1-.617.056.921.921,0,0,1-.545-.308.551.551,0,0,1-.129-.5.561.561,0,0,1,.324-.406Z" transform="translate(-6.624 -5.173)" fill="#666"/>
    <path id="Trazado_54" data-name="Trazado 54" d="M76.116,45.371l-.643-.226V43.713l.643-.215V42.4l-3.728,1.441V45l3.728,1.478v-1.1ZM74.763,44.9l-1.378-.472,1.378-.467V44.9Z" transform="translate(-6.685 -3.915)" fill="#666"/>
    <path id="Trazado_55" data-name="Trazado 55" d="M73.456,49.994a1.064,1.064,0,0,0,.6-.17,1.892,1.892,0,0,0,.525-.554c.015-.025.046-.072.082-.128.134-.211.247-.319.339-.319a.216.216,0,0,1,.191.087.424.424,0,0,1,.066.251.912.912,0,0,1-.1.38,2.869,2.869,0,0,1-.289.451H75.9a2.3,2.3,0,0,0,.211-.482,1.784,1.784,0,0,0,.072-.487,1.392,1.392,0,0,0-.293-.949,1.051,1.051,0,0,0-.828-.333,1.1,1.1,0,0,0-.586.149,2.221,2.221,0,0,0-.565.677,1.7,1.7,0,0,1-.257.343.263.263,0,0,1-.18.062.221.221,0,0,1-.18-.072.309.309,0,0,1-.062-.211.77.77,0,0,1,.108-.379,2.47,2.47,0,0,1,.369-.447h-.987a1.453,1.453,0,0,0-.4,1.031,1.054,1.054,0,0,0,.319.791,1.14,1.14,0,0,0,.818.308" transform="translate(-6.679 -4.409)" fill="#666"/>
    <path id="Trazado_56" data-name="Trazado 56" d="M21.043,34.635a4.174,4.174,0,0,0,.745-.19,2.259,2.259,0,0,1,.376,0,1.02,1.02,0,0,0,.375,0c.211-.083.36-.272.565-.375.052-.025.123,0,.185,0h.191c.062,0,.185-.062.185,0a.584.584,0,0,1-.185.375c-.046.041-.134-.025-.191,0a.412.412,0,0,0-.185.19c-.031.056-.062.184,0,.184,1.434,0,4.308-.471,4.3-.184l-.175,5.037h1.862V37.436L28.9,36.5V34.824c0-.062-.046-.143,0-.184s.144.041.191,0-.046-.144,0-.191.123,0,.185,0a2.312,2.312,0,0,1,.56,0c.083.021.118.139.191.191a1.579,1.579,0,0,0,.369.184.584.584,0,0,0,.191,0h.19c.063,0,.129-.025.185,0,.083.041.1.159.191.184a.643.643,0,0,0,.37,0c.139-.035.241-.143.375-.184.056-.021.144.046.185,0s-.041-.143,0-.184.144.041.191,0-.042-.144,0-.191.128-.02.185,0c.133.042.236.16.375.191a2.96,2.96,0,0,0,.56,0,3.017,3.017,0,0,0,.565,0c.134-.031.237-.16.37-.191a2.969,2.969,0,0,1,.561,0h.745c.062,0,.159.052.19,0a.429.429,0,0,0,0-.374c-.031-.056-.128,0-.19,0s-.144.046-.185,0,0-.123,0-.185.041-.143,0-.19-.129,0-.191,0a1.154,1.154,0,0,1-.375,0c-.083-.025-.1-.159-.191-.184a1.3,1.3,0,0,0-.375,0c-.062,0-.139.041-.185,0s.046-.143,0-.185-.129.026-.185,0c-.082-.041-.108-.153-.19-.184-.293-.118.3-.025.369,0,.088.025.1.159.185.184a1.3,1.3,0,0,0,.376,0c.062,0,.143.042.19,0a.14.14,0,0,0,0-.184c-.046-.046-.159.051-.19,0-.057-.113.087-.288,0-.375s-.262.056-.376,0c-.39-.19.056-.184.376-.184h.19c.062,0,.185.062.185,0,0-.087-.129-.128-.185-.185s-.1-.159-.19-.19c-.119-.041-.262.057-.376,0-.056-.025.041-.143,0-.184s-.123,0-.185,0-.143.041-.185,0a.579.579,0,0,1-.19-.375c0-.062.123,0,.19,0s.139.046.185,0a.14.14,0,0,0,0-.184c-.041-.046-.123,0-.185,0s-.133.025-.19,0c-.083-.041-.123-.123-.191-.19s-.1-.16-.185-.185c-.118-.041-.257.041-.369,0a.36.36,0,0,1-.191-.19c-.025-.056-.046-.143,0-.184s.123,0,.191,0h.56c.062,0,.16.056.191,0a.437.437,0,0,0,0-.375c-.026-.056-.123,0-.191,0s-.144.046-.185,0,.056-.159,0-.184c-.113-.057-.262.056-.37,0-.056-.026.046-.144,0-.185s-.128,0-.19,0a.481.481,0,0,1-.191,0c-.077-.041-.108-.149-.185-.184-.056-.031-.143.045-.185,0s.046-.144,0-.191-.123,0-.19,0c-.442,0-.288-.184,0-.184h.19a.743.743,0,0,1,.185,0c.191.046.37.149.561.184a1.733,1.733,0,0,0,.369,0c.062,0,.144.046.185,0a.14.14,0,0,0,0-.184,4.593,4.593,0,0,0-.56-.369.677.677,0,0,1-.191-.19c-.025-.056-.046-.143,0-.19s.144.046.191,0a.134.134,0,0,0,0-.18c-.046-.046-.129,0-.191,0s-.143.041-.19,0,.046-.143,0-.19-.123,0-.185,0-.144.046-.185,0,.021-.123.015-.164a.313.313,0,0,1-.206-.021c-.01,0-.01-.02-.015-.025-.18,0-.365.025-.545.025-.062,0-.139.042-.185,0a1.509,1.509,0,0,1-.19-.374c-.026-.056-.139.046-.191,0a.141.141,0,0,1,0-.185c.046-.046.129-.01.191,0a2.32,2.32,0,0,1,.751.185c.108.066.082.256.164.349a.894.894,0,0,1,.205.025c.011,0,.011.011.015.021a1.068,1.068,0,0,1,.17-.021h.185c.062,0,.144.042.191,0a1,1,0,0,0,.19-.374c.021-.062.046-.143,0-.185s-.128,0-.19,0c-.087,0-.123-.128-.191-.19l-.185-.184A1.231,1.231,0,0,0,32.244,27c-.118-.082-.261-.107-.369-.19-.144-.107-.376-.2-.376-.374,0-.123.262.056.376,0,.056-.026-.046-.144,0-.185s.123,0,.184,0h.191c.062,0,.185.062.185,0,0-.087-.108-.143-.185-.19-.056-.025-.123,0-.191,0h-.184a1.159,1.159,0,0,1-.376,0c-.082-.025-.108-.143-.185-.184h-.19c.062,0,.133-.026.19,0H31.5a1.336,1.336,0,0,0,.376,0c.334-.113.344-.247.184-.559-.025-.057-.123,0-.184,0H31.5c-.062,0-.139.041-.185,0s.056-.16,0-.191c-.113-.056-.247,0-.375,0-.062,0-.139.046-.185,0s.046-.143,0-.19-.191.062-.191,0c0-.087.108-.143.191-.184.056-.025.123,0,.185,0h.375c.062,0,.144.046.185,0,.345-.339.37-.841.154-.687a.378.378,0,0,1-.386-.026c-.072-.035-.046-.174-.139-.215a.5.5,0,0,1-.19-.185c-.026-.056.046-.143,0-.19s-.129.025-.185,0c-.083-.035-.108-.143-.191-.19-.056-.025-.128.021-.19,0-.129-.041-.241-.138-.37-.184-.056-.015-.191.061-.191,0A.456.456,0,0,1,30,22.7a.346.346,0,0,1,.37,0c.118.076.093.271.19.369.046.046.123,0,.191,0s.139.046.185,0c.1-.1.231-.241.19-.369s-.257-.113-.37-.19a.6.6,0,0,1-.19-.185c-.025-.056-.046-.143,0-.184s.144.041.19,0-.045-.144,0-.19.123,0,.185,0,.144.045.191,0a.141.141,0,0,0,0-.185c-.046-.041-.139.046-.191,0-.1-.1-.087-.271-.185-.369-.045-.046-.128,0-.19,0h-.191c-.123,0-.261.056-.369,0-.057-.031.046-.143,0-.184s-.123,0-.191,0-.143.041-.185,0a.147.147,0,0,1,0-.19c.042-.042.123,0,.185,0a.788.788,0,0,0,.191,0c.133-.042.241-.144.369-.191.062-.015.134.031.191,0a.458.458,0,0,0,.19-.184c.026-.056.046-.143,0-.184s-.128,0-.19,0-.16.056-.191,0a.437.437,0,0,1,0-.375c.026-.056.123,0,.191,0s.133.031.19,0c.078-.036.109-.143.185-.19.057-.025.144.046.191,0s.056-.159,0-.185c-.108-.056-.247,0-.37,0h-.375a1.266,1.266,0,0,1-.37,0c-.083-.025-.191-.1-.191-.184,0-.062.129,0,.191,0a1.3,1.3,0,0,0,.37,0c.082-.031.108-.149.19-.19.057-.026.144.046.191,0a.141.141,0,0,0,0-.185c-.046-.046-.144.046-.191,0-.1-.1-.072-.3-.19-.374-.1-.067-.37.128-.37,0s.257-.108.37-.185a1.292,1.292,0,0,0,.19-.19c.062-.062.191-.1.191-.18,0-.066-.129,0-.191,0s-.143.042-.19,0a.179.179,0,0,1,0-.184c.046-.082.19-.1.19-.19a.467.467,0,0,0-.19-.375c-.1-.066-.247,0-.37,0h-.37c-.066,0-.143.041-.19,0a.14.14,0,0,1,0-.184c.046-.046.133.025.19,0,.077-.041.185-.1.185-.19,0-.062-.123,0-.185,0s-.143.045-.19,0-.026-.133,0-.19c.041-.077.149-.108.19-.185.026-.056.042-.143,0-.184s-.123,0-.19,0h-.185c-.062,0-.16.051-.185,0-.057-.113,0-.251,0-.375,0-.062-.046-.139,0-.185s.139.046.185,0,0-.128,0-.19.046-.143,0-.184-.123,0-.185,0h-.751c-.2,0,.128-.375.191-.559v-.375h-.191v.185l-.185-.375v-.184h-.19v.184l-.185.19v.744c0,.062-.123,0-.191,0s-.144-.046-.185,0-.025.133,0,.19c.036.077.185.1.185.184,0,.062-.123,0-.185,0-.128,0-.262-.056-.375,0a.126.126,0,0,0,0,.19c.108.057.262-.056.375,0a.123.123,0,0,1,0,.185c-.113.056-.251,0-.375,0-.062,0-.16-.056-.185,0a.431.431,0,0,0,0,.375c.025.051.139-.046.185,0s0,.123,0,.184.031.133,0,.185a.421.421,0,0,1-.185.19c-.057.025-.144.045-.191,0s.046-.144,0-.19-.123,0-.19,0-.139-.042-.185,0,.046.143,0,.19-.144-.046-.191,0-.025.133,0,.19c.042.076.139.113.191.184a.719.719,0,0,1,.185.375c0,.066-.139-.041-.185,0a.147.147,0,0,0,0,.19c.1.093.257.108.369.184.073.046.191.1.191.18s-.108.149-.191.19c-.056.026-.123,0-.19,0h-.37c.046.042-.046.143,0,.185s.16-.056.191,0c.056.113-.057.261,0,.374.025.056.143-.046.185,0s0,.123,0,.185.046.143,0,.19-.123,0-.185,0h-.191a.743.743,0,0,1-.185,0c-.9-.3-.622-.128,0,.184.057.026-.046.144,0,.185s.123,0,.185,0h.37c.062,0,.144-.041.19,0s0,.123,0,.19c0,.128.057.261,0,.375-.025.056-.123,0-.19,0H25.9c-.123,0-.273.066-.376,0-.118-.077-.087-.272-.19-.375-.042-.046-.16-.056-.185,0a.492.492,0,0,0,0,.375c.025.082.143.107.185.184.025.056-.026.133,0,.184a.364.364,0,0,0,.19.191,1.336,1.336,0,0,0,.376,0c.062,0,.128-.026.185,0a.4.4,0,0,1,.19.19c.025.056-.046.143,0,.184.025-.056.123,0,.185,0-.062,0-.139.041-.185,0-.056.108.056.261,0,.369-.031.056-.143.046-.19,0-.1-.1-.073-.292-.185-.369s-.252,0-.376,0c-.062,0-.159-.056-.19,0a.533.533,0,0,0,0,.369c.025.083.153.108.19.185.026.056-.046.143,0,.19.1.092.376.046.376.184s-.252,0-.376,0h-.37c-.062,0-.139-.041-.19,0-.133.1-.437,0,0,.185.056.025.133-.026.19,0,.077.041.108.149.185.19.057.025.129,0,.191,0,.123,0,.288-.093.375,0s-.056.261,0,.369h.185c-.062,0-.159.056-.185,0h-.375c-.062,0-.139-.042-.191,0s.046.143,0,.184-.123,0-.185,0-.143-.041-.19,0c-.175.174-.262.211-.191.375.026.056.149-.046.191,0s-.042.138,0,.184h.19c-.062,0-.143.046-.19,0H24.77c-.062,0-.139-.046-.185,0a.141.141,0,0,0,0,.185c.046.046.139-.042.185,0,.1.1.113.256.191.374a.553.553,0,0,0,.19.185c.057.031.185-.062.185,0,0,.092-.108.149-.185.184-.056.031-.123,0-.19,0s-.129-.025-.191,0c-.077.041-.108.149-.185.185-.056.025-.123,0-.19,0h-.561c-.062,0-.133-.026-.184,0-.077.041-.108.149-.185.19.046.046-.057.159,0,.19.108.056.257-.046.369,0,.206.082.36.271.561.369.056.025.123,0,.19,0a1.126,1.126,0,0,1,.37,0c.083.025.108.149.191.19.056.031.185-.062.185,0,0,.087-.108.143-.185.184-.057.031-.123,0-.191,0h-.37c-.062,0-.143-.041-.19,0s.056.16,0,.19c-.113.057-.262-.056-.37,0-.056.026.041.144,0,.185s-.144-.046-.191,0c-.1.1-.087.272-.184.375.046.041-.046.138,0,.19s.143-.046.184,0a.14.14,0,0,1,0,.184c-.045.046-.123,0-.184,0h-.185c-.062,0-.144-.041-.191,0a.141.141,0,0,0,0,.185c.046.045.144-.046.191,0s-.046.143,0,.19.123,0,.185,0h.375a1.1,1.1,0,0,1,.37,0,.322.322,0,0,1,.19.184.519.519,0,0,1,0,.375c-.025.051-.123,0-.19,0h-.37c-.062,0-.144-.046-.191,0s.046.138,0,.184-.123,0-.184,0h-.185c-.062,0-.144-.046-.191,0s.046.144,0,.19c.067,0,.144-.045.191,0a.134.134,0,0,1,0,.18c-.046.046-.144-.041-.191,0s.046.143,0,.19-.129-.025-.185,0a.362.362,0,0,0-.19.19c-.042.118.087.282,0,.369s-.247,0-.376,0c-.062,0-.143-.041-.185,0s.046.144,0,.185-.143-.041-.19,0a.147.147,0,0,0,0,.19c.046.046.128,0,.19,0h.751c.062,0,.139.046.185,0s-.046-.143,0-.19.123,0,.191,0h.369c.067,0,.144-.041.191,0s.056.159,0,.19c-.113.056-.252,0-.375,0a1.531,1.531,0,0,0-.376,0c-.133.031-.236.153-.37.184a1.523,1.523,0,0,1-.375,0h-.185c-.062,0-.144-.045-.191,0s-.062.17,0,.185a3.054,3.054,0,0,0,.751,0h.191c.062,0,.128-.025.185,0a.372.372,0,0,1,.19.184.45.45,0,0,1,0,.375c-.139.174-.406.211-.56.369-.046.046.123,0,.191,0s.184-.062.184,0c0,.087-.108.149-.184.184-.057.031-.129-.01-.191,0a2.894,2.894,0,0,0-.751.19c-.056.026.046.144,0,.185s-.123,0-.19,0-.154-.056-.185,0a.47.47,0,0,0,0,.374c.031.057.128,0,.185,0h1.125c.062,0,.139-.045.185,0a.141.141,0,0,1,0,.185c-.046.041-.129-.025-.185,0-.083.041-.118.133-.191.19a1.618,1.618,0,0,1-.375.185c-.062.02-.129-.026-.185,0-.077.041-.108.148-.191.184-.056.031-.143-.041-.19,0a.975.975,0,0,0-.185.375c-.015.056.046.138,0,.184s-.144-.046-.185,0,.041.143,0,.185-.129-.021-.191,0c-.133.041-.241.143-.375.184-.056.021-.144-.046-.191,0a.149.149,0,0,0,0,.19c.046.046.144-.041.191,0a.141.141,0,0,1,0,.185c-.046.045-.144-.046-.191,0-.1.1-.087.271-.184.374-.046.041-.247-.025-.191,0a1.327,1.327,0,0,0,.56.19Z" transform="translate(-1.889 -1.321)" fill="#666"/>
    <path id="Trazado_57" data-name="Trazado 57" d="M26.461,19.022h.185c-.046-.041-.123,0-.185,0" transform="translate(-2.444 -1.755)" fill="#666"/>
    <path id="Trazado_58" data-name="Trazado 58" d="M23.782,28.065c.062,0,.144.042.185,0-.046-.045-.123,0-.185,0" transform="translate(-2.196 -2.59)" fill="#666"/>
    <path id="Trazado_59" data-name="Trazado 59" d="M23.559,29.922h-.185c.062,0,.139.041.185,0" transform="translate(-2.159 -2.763)" fill="#666"/>
    <path id="Trazado_60" data-name="Trazado 60" d="M23.578,26.218c.067,0,.133.025.191,0-.046-.046-.123,0-.191,0" transform="translate(-2.177 -2.419)" fill="#666"/>
    <path id="Trazado_61" data-name="Trazado 61" d="M52.873,20.57l-1.784-2.755-.13,2.76-2.472-.888,1.872,2.652a7.362,7.362,0,0,1,2.514-1.77" transform="translate(-4.478 -1.645)" fill="#666"/>
    <path id="Trazado_62" data-name="Trazado 62" d="M62.106,17.862,60,19.729l-.3-2.575-1.527,2.955a7.3,7.3,0,0,1,2.807,1.262l1.135-3.509Z" transform="translate(-5.372 -1.584)" fill="#666"/>
    <path id="Trazado_63" data-name="Trazado 63" d="M61.864,22.154a7.29,7.29,0,0,1,1.8,2.488l2.74-1.811-2.719.143,1.486-2.334-3.311,1.513Z" transform="translate(-5.713 -1.906)" fill="#666"/>
    <path id="Trazado_64" data-name="Trazado 64" d="M64.108,25.726a7.406,7.406,0,0,1,.334,3.058l3.28-.225L65.028,27.3l2.314-1.919Z" transform="translate(-5.92 -2.344)" fill="#666"/>
    <path id="Trazado_65" data-name="Trazado 65" d="M64.166,30.107a7.358,7.358,0,0,1-1.316,2.776l3.445,1.036-1.784-1.98,2.637-.16-2.987-1.672Z" transform="translate(-5.804 -2.78)" fill="#666"/>
    <path id="Trazado_66" data-name="Trazado 66" d="M62.125,33.715a7.243,7.243,0,0,1-2.514,1.775l2.036,2.749-.118-2.755L63.9,36.936Z" transform="translate(-5.505 -3.113)" fill="#666"/>
    <path id="Trazado_67" data-name="Trazado 67" d="M55.781,36.25l.01,3.268,1.686-2.385L58.866,39.5,58.83,35.85a7.311,7.311,0,0,1-3.054.4Z" transform="translate(-5.151 -3.311)" fill="#666"/>
    <path id="Trazado_68" data-name="Trazado 68" d="M51.348,38.246l1.81-1.611.3,2.53,1.5-3.042a7.375,7.375,0,0,1-2.889-1.052Z" transform="translate(-4.742 -3.238)" fill="#666"/>
    <path id="Trazado_69" data-name="Trazado 69" d="M50.928,34.287a7.32,7.32,0,0,1-1.939-2.38l-2.631,1.964,2.765-.062-1.342,2.284,3.147-1.8Z" transform="translate(-4.281 -2.946)" fill="#666"/>
    <path id="Trazado_70" data-name="Trazado 70" d="M45.252,31.27l3.223-.652a7.273,7.273,0,0,1-.4-3.042l-3.275.287,2.673,1.544Z" transform="translate(-4.138 -2.547)" fill="#666"/>
    <path id="Trazado_71" data-name="Trazado 71" d="M48.237,26.3a7.372,7.372,0,0,1,1.218-2.816l-3.248-.939,1.625,1.939-2.668.247,3.08,1.575Z" transform="translate(-4.171 -2.082)" fill="#666"/>
    <path id="Trazado_72" data-name="Trazado 72" d="M56.993,19.935l-.211-3.273L55.369,19.1,53.6,17.031l.334,3.221a7.341,7.341,0,0,1,3.059-.318Z" transform="translate(-4.949 -1.539)" fill="#666"/>
    <path id="Trazado_73" data-name="Trazado 73" d="M20.3,79.889l1.2-1,.1.118a.382.382,0,0,1,.093.318,2.293,2.293,0,0,1-.268.605l-.437.78.714.851.643-1.169a1.486,1.486,0,0,0,.149-.349.8.8,0,0,0,.021-.287.933.933,0,0,0,.5.072.914.914,0,0,0,.463-.226.965.965,0,0,0,.406-.805,1.832,1.832,0,0,0-.5-1.016l-.957-1.139-2.858,2.391.72.861Zm2.349-1.965.149.18a.583.583,0,0,1,.175.369.437.437,0,0,1-.175.308.407.407,0,0,1-.334.118.656.656,0,0,1-.344-.261l-.139-.16.663-.554Z" transform="translate(-1.808 -7.077)" fill="#666"/>
    <path id="Trazado_74" data-name="Trazado 74" d="M12.613,32.211V29.836H8.886v2.416H9.7v-1.3h.668v1.205h.781V30.954H11.8v1.257Z" transform="translate(-0.821 -2.755)" fill="#666"/>
    <path id="Trazado_75" data-name="Trazado 75" d="M12.613,24.762H8.886V25.87h1.866L8.886,27.321v1.021h3.727V27.23H10.747l1.866-1.447Z" transform="translate(-0.821 -2.287)" fill="#666"/>
    <rect id="Rectángulo_15" data-name="Rectángulo 15" width="3.727" height="1.134" transform="translate(8.065 37.325)" fill="#666"/>
    <path id="Trazado_76" data-name="Trazado 76" d="M12.613,39.9V36.744h-.961V37.76H8.886v1.129h2.766V39.9Z" transform="translate(-0.821 -3.393)" fill="#666"/>
    <path id="Trazado_77" data-name="Trazado 77" d="M9.933,35.724a1.045,1.045,0,0,0,.586-.153,2.218,2.218,0,0,0,.565-.693,1.506,1.506,0,0,1,.257-.354.286.286,0,0,1,.18-.073.227.227,0,0,1,.18.077.34.34,0,0,1,.062.221.806.806,0,0,1-.108.39,2.165,2.165,0,0,1-.375.461h.982a1.591,1.591,0,0,0,.3-.487,1.694,1.694,0,0,0,.1-.569,1.09,1.09,0,0,0-1.131-1.124,1.071,1.071,0,0,0-.6.17,1.905,1.905,0,0,0-.524.569,1.44,1.44,0,0,0-.083.133c-.139.216-.247.329-.339.329a.219.219,0,0,1-.2-.093.418.418,0,0,1-.067-.261.9.9,0,0,1,.1-.385,2.434,2.434,0,0,1,.293-.462H9.09a2.056,2.056,0,0,0-.211.493,1.815,1.815,0,0,0-.067.5,1.454,1.454,0,0,0,.293.975,1.037,1.037,0,0,0,.828.339" transform="translate(-0.814 -3.086)" fill="#666"/>
    <path id="Trazado_78" data-name="Trazado 78" d="M17.67,76.541l1.065-.8.231.308a1.609,1.609,0,0,0,.9.673,1.132,1.132,0,0,0,.951-.257,1.071,1.071,0,0,0,.483-.821,1.728,1.728,0,0,0-.427-1.052l-.9-1.184L17,75.649Zm2.437-1.832.144.19a.571.571,0,0,1,.143.4.487.487,0,0,1-.226.328.529.529,0,0,1-.391.129.613.613,0,0,1-.354-.262L19.3,75.32Z" transform="translate(-1.57 -6.779)" fill="#666"/>
    <path id="Trazado_79" data-name="Trazado 79" d="M9.361,22.834a1.894,1.894,0,0,0,.617.39,2.231,2.231,0,0,0,.756.128,2.262,2.262,0,0,0,.761-.128,1.754,1.754,0,0,0,.616-.39,1.582,1.582,0,0,0,.407-.575,1.765,1.765,0,0,0,.139-.7,1.727,1.727,0,0,0-.139-.7,1.7,1.7,0,0,0-.407-.575,1.768,1.768,0,0,0-.622-.39,2.134,2.134,0,0,0-.761-.128,2.235,2.235,0,0,0-.756.128,1.826,1.826,0,0,0-.622.39,1.77,1.77,0,0,0-.411,1.97,1.638,1.638,0,0,0,.411.575Zm.787-1.754a.905.905,0,0,1,.6-.19.89.89,0,0,1,.591.19.607.607,0,0,1,0,.954.923.923,0,0,1-.591.185.948.948,0,0,1-.6-.185.6.6,0,0,1,0-.954" transform="translate(-0.813 -1.825)" fill="#666"/>
    <path id="Trazado_80" data-name="Trazado 80" d="M8.886,45.16A2.169,2.169,0,0,0,9,45.9a1.719,1.719,0,0,0,.386.59A1.674,1.674,0,0,0,10,46.9a2.295,2.295,0,0,0,1.511,0,1.666,1.666,0,0,0,.6-.406,1.8,1.8,0,0,0,.391-.59,2.062,2.062,0,0,0,.118-.743V43.549H8.886Zm.946-.477h1.83v.42a.681.681,0,0,1-.257.559.966.966,0,0,1-.663.221.953.953,0,0,1-.658-.221.706.706,0,0,1-.252-.559Z" transform="translate(-0.821 -4.021)" fill="#666"/>
    <path id="Trazado_81" data-name="Trazado 81" d="M12.613,17.271H11.25V16.106h1.362V14.973H8.886v1.134h1.378v1.165H8.886V18.41h3.727Z" transform="translate(-0.821 -1.383)" fill="#666"/>
    <path id="Trazado_82" data-name="Trazado 82" d="M8.885,50.878V52l3.728-1.478V49.339L8.885,47.826V48.96l.638.231v1.468l-.638.215Zm1.352-1.431,1.378.487-1.378.477Z" transform="translate(-0.821 -4.416)" fill="#666"/>
    <path id="Trazado_83" data-name="Trazado 83" d="M13.787,65.784a2.1,2.1,0,0,0-.633.431,1.894,1.894,0,0,0-.4.62,1.718,1.718,0,0,0-.128.693,1.577,1.577,0,0,0,.17.688,1.763,1.763,0,0,0,1.043.923,1.852,1.852,0,0,0,.725.093,2.428,2.428,0,0,0,.741-.2,2.25,2.25,0,0,0,.637-.436,1.862,1.862,0,0,0,.4-.615,1.613,1.613,0,0,0,.123-.693,1.87,1.87,0,0,0-.17-.688,1.791,1.791,0,0,0-.422-.579,1.689,1.689,0,0,0-.606-.349,2.028,2.028,0,0,0-.735-.092,2.139,2.139,0,0,0-.741.2Zm1.1.939a.578.578,0,0,1,.411.333.566.566,0,0,1-.01.529.935.935,0,0,1-.463.42.917.917,0,0,1-.617.082.6.6,0,0,1-.416-.333.58.58,0,0,1,.01-.528,1.045,1.045,0,0,1,1.079-.5Z" transform="translate(-1.166 -6.056)" fill="#666"/>
    <path id="Trazado_84" data-name="Trazado 84" d="M32.338,86.194l-2.194,3.013.919.666,2.194-3.012Z" transform="translate(-2.784 -7.96)" fill="#666"/>
    <path id="Trazado_85" data-name="Trazado 85" d="M8.819,53.652,9.1,55.237a2.026,2.026,0,0,0,.252.718,1.745,1.745,0,0,0,.483.514,1.816,1.816,0,0,0,.668.3,2.125,2.125,0,0,0,.766,0,1.934,1.934,0,0,0,.715-.256A1.7,1.7,0,0,0,12.5,56a1.609,1.609,0,0,0,.277-.641,2.1,2.1,0,0,0,0-.76l-.283-1.585-3.671.646ZM11.672,55.3a.94.94,0,0,1-.617.323,1.02,1.02,0,0,1-.689-.093.717.717,0,0,1-.344-.513l-.077-.41,1.8-.318.072.415a.69.69,0,0,1-.154.6Z" transform="translate(-0.814 -4.896)" fill="#666"/>
    <path id="Trazado_86" data-name="Trazado 86" d="M11.744,62.356a1.835,1.835,0,0,0-.447.575,1.751,1.751,0,0,0-.19.683,1.653,1.653,0,0,0,.108.7,2.383,2.383,0,0,0,.3.585,2.142,2.142,0,0,0,.432.462l.94-.369a2.566,2.566,0,0,1-.427-.369,1.61,1.61,0,0,1-.252-.436.841.841,0,0,1,.026-.7.962.962,0,0,1,.56-.462.937.937,0,0,1,.725,0,.81.81,0,0,1,.462.518,1.428,1.428,0,0,1,.093.5A1.984,1.984,0,0,1,14,64.6l.961-.354a2.512,2.512,0,0,0,.025-.611,1.993,1.993,0,0,0-.123-.564,1.956,1.956,0,0,0-.386-.662,1.716,1.716,0,0,0-.585-.416,1.968,1.968,0,0,0-.72-.154,2.1,2.1,0,0,0-.756.139,2.071,2.071,0,0,0-.668.379" transform="translate(-1.025 -5.71)" fill="#666"/>
    <path id="Trazado_87" data-name="Trazado 87" d="M26.673,86.4l1.291-1.528-.211,1.6,1.538-.483L28,87.517l.864.719,2.4-2.853-.791-.656-1.7.534L29,83.49l-.792-.662-2.4,2.852Z" transform="translate(-2.383 -7.649)" fill="#666"/>
    <path id="Trazado_88" data-name="Trazado 88" d="M23.267,81.6a1.869,1.869,0,0,0-.159.718,1.649,1.649,0,0,0,.118.693,1.773,1.773,0,0,0,.391.6,1.65,1.65,0,0,0,.591.39,1.678,1.678,0,0,0,.7.118,1.782,1.782,0,0,0,.714-.164A2.335,2.335,0,0,0,26.7,82.878a1.83,1.83,0,0,0,.164-.708,1.672,1.672,0,0,0-.118-.7,1.835,1.835,0,0,0-1-.99,1.732,1.732,0,0,0-.689-.118,1.836,1.836,0,0,0-.714.164,2.088,2.088,0,0,0-.632.451,1.994,1.994,0,0,0-.443.616m1.244.174a.88.88,0,0,1,.555-.282.593.593,0,0,1,.5.169.574.574,0,0,1,.17.5.9.9,0,0,1-.289.554A.914.914,0,0,1,24.9,83a.6.6,0,0,1-.673-.677.893.893,0,0,1,.288-.555Z" transform="translate(-2.134 -7.421)" fill="#666"/>
    <path id="Trazado_89" data-name="Trazado 89" d="M14.742,71.88l1.743-1-.741,1.431,1.609.066-1.737,1,.56.975L19.4,72.491l-.514-.893-1.779-.077.822-1.579-.519-.893-3.233,1.857Z" transform="translate(-1.31 -6.376)" fill="#666"/>
    <path id="Trazado_90" data-name="Trazado 90" d="M35.612,91.623a1.965,1.965,0,0,0,.026.733A1.769,1.769,0,0,0,35.93,93a1.751,1.751,0,0,0,.536.472,1.728,1.728,0,0,0,.678.226,1.664,1.664,0,0,0,.7-.072,1.814,1.814,0,0,0,.648-.339,2.158,2.158,0,0,0,.488-.59,2.312,2.312,0,0,0,.272-.723,1.84,1.84,0,0,0-.025-.728,1.579,1.579,0,0,0-.293-.636,1.719,1.719,0,0,0-.54-.472,1.736,1.736,0,0,0-1.378-.164,1.86,1.86,0,0,0-.647.344,2.1,2.1,0,0,0-.494.595,2.016,2.016,0,0,0-.262.713Zm1.244-.153a.9.9,0,0,1,.463-.416.6.6,0,0,1,.535.035.571.571,0,0,1,.293.437.893.893,0,0,1-.139.605.912.912,0,0,1-.457.415.6.6,0,0,1-.53-.03.581.581,0,0,1-.3-.442.911.911,0,0,1,.133-.6" transform="translate(-3.287 -8.302)" fill="#666"/>
    <path id="Trazado_91" data-name="Trazado 91" d="M33.524,89.766c.015.031.036.082.067.143.108.231.133.385.087.457a.209.209,0,0,1-.18.113.4.4,0,0,1-.252-.083.976.976,0,0,1-.272-.3,2.349,2.349,0,0,1-.237-.492l-.555.861a2.516,2.516,0,0,0,.3.441,1.993,1.993,0,0,0,.386.339,1.465,1.465,0,0,0,.977.282,1.182,1.182,0,0,0,.926-1.082,2.222,2.222,0,0,0-.278-.847,1.864,1.864,0,0,1-.154-.41.248.248,0,0,1,.041-.19.22.22,0,0,1,.16-.1.343.343,0,0,1,.216.066.788.788,0,0,1,.272.3,2.451,2.451,0,0,1,.185.565L35.745,89a1.681,1.681,0,0,0-.247-.518,1.528,1.528,0,0,0-.422-.389,1.1,1.1,0,0,0-.853-.175,1.112,1.112,0,0,0-.714.514,1.074,1.074,0,0,0-.18.59,2.018,2.018,0,0,0,.19.749Z" transform="translate(-2.972 -8.117)" fill="#666"/>
    <path id="Trazado_92" data-name="Trazado 92" d="M103.171,90.82H99.408l-.95,2.7H97.219l3.485-9.44h1.166l3.485,9.44h-1.238l-.951-2.7Zm-3.413-1h3.069l-1.48-4.212h-.1l-1.48,4.212Z" transform="translate(-8.978 -7.765)" fill="#666"/>
    <path id="Trazado_93" data-name="Trazado 93" d="M112.888,91.032c.144.99,1.09,1.616,2.432,1.616,1.27,0,2.211-.687,2.211-1.621,0-.805-.592-1.312-1.892-1.641l-1.213-.313c-1.712-.431-2.452-1.205-2.452-2.544,0-1.6,1.342-2.688,3.342-2.688,1.83,0,3.192,1.087,3.289,2.611h-1.187a1.936,1.936,0,0,0-2.144-1.544c-1.259,0-2.092.625-2.092,1.585,0,.739.519,1.165,1.82,1.5l.992.261c1.959.492,2.746,1.252,2.746,2.637,0,1.734-1.368,2.836-3.532,2.836-2.005,0-3.388-1.062-3.512-2.688h1.193Z" transform="translate(-10.315 -7.742)" fill="#666"/>
    <path id="Trazado_94" data-name="Trazado 94" d="M127.473,93.523h-5.861v-9.44h5.861v1.062h-4.678v3.027h4.437v1.047h-4.437v3.242h4.678Z" transform="translate(-11.231 -7.765)" fill="#666"/>
    <path id="Trazado_95" data-name="Trazado 95" d="M130.425,93.523v-9.44h1.146l5.13,7.347h.1V84.084h1.166v9.44h-1.146l-5.13-7.32h-.1v7.32Z" transform="translate(-12.045 -7.765)" fill="#666"/>
    <path id="Trazado_96" data-name="Trazado 96" d="M144.651,84.084c2.806,0,4.462,1.744,4.462,4.714s-1.65,4.725-4.462,4.725h-3.244v-9.44Zm-2.067,8.378h1.984c2.113,0,3.337-1.35,3.337-3.648s-1.239-3.668-3.337-3.668h-1.984v7.316Z" transform="translate(-13.059 -7.765)" fill="#666"/>
    <rect id="Rectángulo_16" data-name="Rectángulo 16" width="1.183" height="9.44" transform="translate(138.095 76.319)" fill="#666"/>
    <path id="Trazado_97" data-name="Trazado 97" d="M155.7,88.78c0-3.047,1.6-4.946,4.17-4.946A3.69,3.69,0,0,1,163.7,86.9h-1.2a2.6,2.6,0,0,0-2.627-1.98c-1.814,0-2.955,1.492-2.955,3.858s1.141,3.852,2.961,3.852a2.531,2.531,0,0,0,2.621-1.764h1.2a3.6,3.6,0,0,1-3.819,2.852c-2.57,0-4.174-1.9-4.174-4.939Z" transform="translate(-14.378 -7.742)" fill="#666"/>
    <path id="Trazado_98" data-name="Trazado 98" d="M171.522,90.82h-3.763l-.951,2.7h-1.239l3.485-9.44h1.167l3.485,9.44h-1.239l-.951-2.7Zm-3.414-1h3.069l-1.48-4.212h-.1l-1.48,4.212Z" transform="translate(-15.29 -7.765)" fill="#666"/>
    <path id="Trazado_99" data-name="Trazado 99" d="M186.4,93.523h-5.861v-9.44H186.4v1.062h-4.678v3.027h4.436v1.047h-4.436v3.242H186.4Z" transform="translate(-16.673 -7.765)" fill="#666"/>
    <path id="Trazado_100" data-name="Trazado 100" d="M192.6,84.084c2.807,0,4.462,1.744,4.462,4.714s-1.65,4.725-4.462,4.725h-3.244v-9.44Zm-2.067,8.378h1.985c2.112,0,3.336-1.35,3.336-3.648s-1.239-3.668-3.336-3.668h-1.985v7.316Z" transform="translate(-17.487 -7.765)" fill="#666"/>
    <path id="Trazado_101" data-name="Trazado 101" d="M201.313,90.2a2.578,2.578,0,0,0,5.151,0V84.084h1.182v6.2c0,2.016-1.409,3.467-3.758,3.467s-3.758-1.451-3.758-3.467v-6.2h1.177V90.2Z" transform="translate(-18.482 -7.765)" fill="#666"/>
    <path id="Trazado_102" data-name="Trazado 102" d="M210.7,88.78c0-3.047,1.6-4.946,4.17-4.946A3.69,3.69,0,0,1,218.7,86.9h-1.2a2.6,2.6,0,0,0-2.627-1.98c-1.814,0-2.955,1.492-2.955,3.858s1.141,3.852,2.961,3.852a2.531,2.531,0,0,0,2.621-1.764h1.2a3.6,3.6,0,0,1-3.819,2.852c-2.57,0-4.174-1.9-4.174-4.939Z" transform="translate(-19.458 -7.742)" fill="#666"/>
    <path id="Trazado_103" data-name="Trazado 103" d="M226.523,90.82H222.76l-.951,2.7H220.57l3.485-9.44h1.167l3.485,9.44h-1.239l-.951-2.7Zm-3.414-1h3.069l-1.48-4.212h-.1l-1.48,4.212Z" transform="translate(-20.369 -7.765)" fill="#666"/>
    <path id="Trazado_104" data-name="Trazado 104" d="M232.539,93.523V85.146H229.49V84.084h7.274v1.062h-3.048v8.378h-1.177Z" transform="translate(-21.193 -7.765)" fill="#666"/>
    <rect id="Rectángulo_17" data-name="Rectángulo 17" width="1.182" height="9.44" transform="translate(217.397 76.319)" fill="#666"/>
    <path id="Trazado_105" data-name="Trazado 105" d="M251.739,88.774c0,3.016-1.625,4.945-4.329,4.945s-4.344-1.923-4.344-4.945,1.671-4.94,4.344-4.94,4.329,1.909,4.329,4.94m-7.459,0c0,2.339,1.167,3.858,3.13,3.858s3.116-1.519,3.116-3.858-1.183-3.852-3.116-3.852-3.13,1.492-3.13,3.852" transform="translate(-22.447 -7.742)" fill="#666"/>
    <path id="Trazado_106" data-name="Trazado 106" d="M254.876,93.523v-9.44h1.146l5.13,7.347h.1V84.084h1.166v9.44h-1.146l-5.13-7.32h-.1v7.32Z" transform="translate(-23.537 -7.765)" fill="#666"/>
    <path id="Trazado_107" data-name="Trazado 107" d="M270.72,91.032c.144.99,1.09,1.616,2.432,1.616,1.27,0,2.21-.687,2.21-1.621,0-.805-.591-1.312-1.892-1.641l-1.213-.313c-1.712-.431-2.452-1.205-2.452-2.544,0-1.6,1.342-2.688,3.341-2.688,1.831,0,3.193,1.087,3.29,2.611h-1.187a1.936,1.936,0,0,0-2.144-1.544c-1.26,0-2.092.625-2.092,1.585,0,.739.519,1.165,1.82,1.5l.987.261c1.959.492,2.746,1.252,2.746,2.637,0,1.734-1.368,2.836-3.532,2.836-2,0-3.388-1.062-3.512-2.688h1.193Z" transform="translate(-24.89 -7.742)" fill="#666"/>
    <path id="Trazado_108" data-name="Trazado 108" d="M279.049,88.78c0-3.047,1.6-4.946,4.169-4.946a3.691,3.691,0,0,1,3.83,3.068h-1.2a2.6,2.6,0,0,0-2.627-1.98c-1.815,0-2.956,1.492-2.956,3.858s1.141,3.852,2.961,3.852a2.533,2.533,0,0,0,2.622-1.764h1.2a3.6,3.6,0,0,1-3.82,2.852c-2.57,0-4.174-1.9-4.174-4.939Z" transform="translate(-25.77 -7.742)" fill="#666"/>
    <path id="Trazado_109" data-name="Trazado 109" d="M296.41,93.523v-4.3h-5.192v4.3h-1.183v-9.44h1.183v4.084h5.192V84.084h1.177v9.44Z" transform="translate(-26.784 -7.765)" fill="#666"/>
    <path id="Trazado_110" data-name="Trazado 110" d="M309.289,88.774c0,3.016-1.625,4.945-4.329,4.945s-4.344-1.923-4.344-4.945,1.671-4.94,4.344-4.94,4.329,1.909,4.329,4.94m-7.459,0c0,2.339,1.167,3.858,3.13,3.858s3.115-1.519,3.115-3.858-1.182-3.852-3.115-3.852-3.13,1.492-3.13,3.852" transform="translate(-27.761 -7.742)" fill="#666"/>
    <path id="Trazado_111" data-name="Trazado 111" d="M320.69,88.774c0,3.016-1.624,4.945-4.329,4.945s-4.343-1.923-4.343-4.945,1.67-4.94,4.343-4.94,4.329,1.909,4.329,4.94m-7.459,0c0,2.339,1.167,3.858,3.13,3.858s3.116-1.519,3.116-3.858-1.183-3.852-3.116-3.852-3.13,1.492-3.13,3.852" transform="translate(-28.814 -7.742)" fill="#666"/>
    <path id="Trazado_112" data-name="Trazado 112" d="M329.569,93.523h-5.743v-9.44h1.183v8.378h4.56Z" transform="translate(-29.905 -7.765)" fill="#666"/>
  </g>
</svg>
