<svg xmlns="http://www.w3.org/2000/svg" xmlns:xlink="http://www.w3.org/1999/xlink" width="310.797" height="59.199" viewBox="0 0 310.797 59.199">
  <defs>
    <clipPath id="clip-path">
      <rect id="Rectángulo_1" data-name="Rectángulo 1" width="310.798" height="59.199" fill="none"/>
    </clipPath>
  </defs>
  <g id="Grupo_2" data-name="Grupo 2" transform="translate(0 0)">
    <g id="Grupo_1" data-name="Grupo 1" transform="translate(0 0)" clip-path="url(#clip-path)">
      <path id="Trazado_1" data-name="Trazado 1" d="M189.382,34.184a4.4,4.4,0,0,1,.975.1,1.1,1.1,0,0,1,.675.451,2.382,2.382,0,0,1,.3,1.379v1.73c0,.371.009.787.025,1.253a2.309,2.309,0,0,1-.175,1.1.908.908,0,0,1-.575.452,3.388,3.388,0,0,1-.85.1c-.315,0-.65-.015-1-.05a3.117,3.117,0,0,0-.975.05,3.524,3.524,0,0,1-.7.126,2.615,2.615,0,0,0-.65.125,7.462,7.462,0,0,0-1.6.727,4.277,4.277,0,0,0-1.25,1.078q-.247.406-.525.827c-.185.286-.36.577-.525.877-.1.271-.19.547-.275.828s-.16.561-.225.827a2.718,2.718,0,0,0-.1.727,2.69,2.69,0,0,1-.1.727.989.989,0,0,0-.026.376.7.7,0,0,1-.025.326v.8a1.982,1.982,0,0,0-.05.777,6.8,6.8,0,0,1,.05.828v7.48c0,.436-.015.837-.05,1.2a1.824,1.824,0,0,1-.3.9.6.6,0,0,1-.326.226,4.422,4.422,0,0,1-.475.125h-.25a2.676,2.676,0,0,1-.55.05h-2.7a3.634,3.634,0,0,0-.625-.05h-.675c-.165-.065-.335-.125-.5-.175a.531.531,0,0,1-.35-.326,1.235,1.235,0,0,1-.225-.727c-.015-.315-.025-.642-.025-.977V36.195a1.367,1.367,0,0,1,.2-.777,1.087,1.087,0,0,1,.75-.5,6.309,6.309,0,0,1,1.2-.1h2.555a6.5,6.5,0,0,1,1.05.075.989.989,0,0,1,.7.477,1.52,1.52,0,0,1,.175.7c.015.3.04.6.075.877a3.46,3.46,0,0,0,.174.777.47.47,0,0,0,.475.351.3.3,0,0,1,.2-.1.293.293,0,0,0,.2-.1,2.842,2.842,0,0,0,.525-.577,2.344,2.344,0,0,1,.575-.577,2.179,2.179,0,0,0,.35-.326,2.173,2.173,0,0,1,.35-.326c.3-.2.61-.4.926-.6a10.318,10.318,0,0,1,.975-.551,10.088,10.088,0,0,1,1.025-.351c.35-.1.71-.2,1.075-.3a1.815,1.815,0,0,1,.575-.026q.427.023.525-.075Z" transform="translate(-47.197 -9.228)" fill="#ff3553"/>
      <path id="Trazado_2" data-name="Trazado 2" d="M225.251,54.491V55.87a1.756,1.756,0,0,1-.3,1.078,1.213,1.213,0,0,1-.65.326,4.928,4.928,0,0,1-.9.075h-2.755c-.335,0-.644-.009-.925-.025a1.137,1.137,0,0,1-.675-.226.9.9,0,0,1-.4-.652,3.625,3.625,0,0,0-.2-.8l-.175-.175-.174-.176a1.092,1.092,0,0,0-.8.251l-.5.5c-.234.165-.45.31-.65.426s-.42.261-.65.426c-.135.066-.274.136-.425.2s-.31.135-.475.2q-.705.247-1.5.451a1.27,1.27,0,0,1-.45.1,1.561,1.561,0,0,0-.4.05,3.436,3.436,0,0,0-.426.025,3.274,3.274,0,0,1-.425.026h-.45a2.78,2.78,0,0,1-.9.075,2.849,2.849,0,0,1-.85-.126,1.811,1.811,0,0,0-.626-.075A1.454,1.454,0,0,1,208,57.75c-.4-.136-.8-.261-1.175-.376a8.9,8.9,0,0,1-1.125-.426,8.645,8.645,0,0,1-3.13-2.336,13.707,13.707,0,0,1-2.18-3.338,7.935,7.935,0,0,1-.4-1.078c-.1-.351-.215-.712-.35-1.078a1.494,1.494,0,0,1-.05-.376,1.23,1.23,0,0,0-.1-.426c-.065-.266-.125-.561-.175-.877s-.11-.642-.175-.977a.8.8,0,0,1-.025-.351.789.789,0,0,0-.025-.351v-.477a2.3,2.3,0,0,0-.05-.476,2.848,2.848,0,0,1-.05-.577,2.178,2.178,0,0,1,.05-.526,2.308,2.308,0,0,0,.05-.477V42.75a1.542,1.542,0,0,0,.025-.477,1.027,1.027,0,0,1,.075-.476c.065-.366.125-.717.175-1.053a7.163,7.163,0,0,1,.225-1c.135-.4.25-.788.35-1.153a7.415,7.415,0,0,1,.4-1.1,15.029,15.029,0,0,1,1.75-2.863,1.1,1.1,0,0,1,.275-.276,1.1,1.1,0,0,0,.275-.276,5.962,5.962,0,0,1,.4-.451c.135-.136.285-.266.45-.4a1.092,1.092,0,0,0,.35-.275,1.091,1.091,0,0,1,.35-.276,11.681,11.681,0,0,1,2.906-1.4,5.52,5.52,0,0,1,.725-.15,7.863,7.863,0,0,0,.775-.151,4.034,4.034,0,0,1,.9-.125c.365-.015.735-.026,1.1-.026s.725.015,1.075.05a5.34,5.34,0,0,1,.875.15c.5.166.985.321,1.45.451a5.918,5.918,0,0,1,1.3.552c.235.166.45.326.65.476s.415.311.65.477c.135.1.325.236.574.4a.594.594,0,0,0,.725,0,.358.358,0,0,0,.2-.351,1.376,1.376,0,0,1,.1-.5v-.5a1.059,1.059,0,0,0,.05-.351V24.436c0-.366-.009-.777-.025-1.228a1.677,1.677,0,0,1,.225-1.028.971.971,0,0,1,.75-.5.284.284,0,0,1,.2-.026.28.28,0,0,0,.2-.025h3.555a10.631,10.631,0,0,1,1.1.05.983.983,0,0,1,.75.4,1.943,1.943,0,0,1,.25,1.028v31.4Zm-7.22-9.841a1.214,1.214,0,0,0,.025-.426,4.2,4.2,0,0,1-.025-.426,9.6,9.6,0,0,0-.05-1,6.777,6.777,0,0,0-.15-.9c-.066-.366-.126-.7-.175-1a3.1,3.1,0,0,0-.275-.852,6.639,6.639,0,0,0-2.03-2.863,6.045,6.045,0,0,0-3.83-1.053,4.43,4.43,0,0,0-.8.1c-.27.065-.51.125-.725.175a2.85,2.85,0,0,0-.626.226,4.5,4.5,0,0,0-2.1,1.705,10.412,10.412,0,0,0-1.2,2.612,5.571,5.571,0,0,0-.2,1,6.572,6.572,0,0,1-.2,1.052v.7a4.582,4.582,0,0,0-.05,1.228,6.146,6.146,0,0,0,.15,1.128,1.561,1.561,0,0,0,.025.276,1.324,1.324,0,0,1,.026.226c.065.271.125.521.174.753s.11.486.175.752a6.786,6.786,0,0,0,2.9,3.865,5.045,5.045,0,0,0,1.8.7,2.583,2.583,0,0,0,.6.05,2,2,0,0,0,.474.075,1.692,1.692,0,0,0,.526-.026,7.705,7.705,0,0,1,.8-.15,3.608,3.608,0,0,0,.8-.2,5.633,5.633,0,0,0,2-1.4,7.778,7.778,0,0,0,1.3-2.16,4.453,4.453,0,0,0,.3-.928c.065-.315.135-.661.2-1.028a1.56,1.56,0,0,0,.026-.476,1.02,1.02,0,0,1,.074-.477,1.058,1.058,0,0,0,.05-.351v-.9Z" transform="translate(-53.749 -5.842)" fill="#ff3553"/>
      <path id="Trazado_3" data-name="Trazado 3" d="M264.9,47.524a2.11,2.11,0,0,1,0,.9.931.931,0,0,1-.35.652,1.516,1.516,0,0,1-.726.275,9.123,9.123,0,0,1-1.05.1c-.385.015-.77.015-1.15,0s-.725-.026-1.025-.026h-12.89a1.574,1.574,0,0,0-.575.1,1.086,1.086,0,0,0-.5.4,1.1,1.1,0,0,0-.2.376.973.973,0,0,0-.05.527,2.611,2.611,0,0,1,.125.577,2.528,2.528,0,0,0,.125.577,7.061,7.061,0,0,0,.975,1.985,5.345,5.345,0,0,0,1.575,1.378,2.311,2.311,0,0,0,.825.326,6.134,6.134,0,0,1,.875.226,7.127,7.127,0,0,0,1.1.15,4.513,4.513,0,0,0,1.2-.05h.45a9.5,9.5,0,0,0,.925-.226c.285-.085.56-.175.826-.275a11.987,11.987,0,0,0,1.125-.653,3.531,3.531,0,0,0,.925-.8q.247-.354.526-.677a1.643,1.643,0,0,1,.674-.476,2.689,2.689,0,0,1,1.275-.226c.515.015.99.025,1.425.025.2,0,.409-.01.625-.025a1.3,1.3,0,0,1,.575.075h.5a1.8,1.8,0,0,1,.7.25.486.486,0,0,1,.225.451,1.388,1.388,0,0,1-.075.6,8.432,8.432,0,0,1-.55,1.253,9.955,9.955,0,0,1-.7,1.1,10.162,10.162,0,0,1-2.5,2.662,13.051,13.051,0,0,1-3.506,1.7,4.381,4.381,0,0,1-1.1.251,7.626,7.626,0,0,0-1.15.2,1.193,1.193,0,0,1-.426.025,1.19,1.19,0,0,0-.425.025h-.55a1.306,1.306,0,0,1-.575.075,4.174,4.174,0,0,1-.575-.075,2.331,2.331,0,0,0-.7,0,1.471,1.471,0,0,1-.65-.05,1.479,1.479,0,0,0-.55-.1,1.5,1.5,0,0,1-.55-.1c-.37-.065-.735-.14-1.1-.226a3.853,3.853,0,0,1-1-.376l-1.025-.377a4.593,4.593,0,0,1-.875-.426,14.264,14.264,0,0,1-2.855-2.336,11.319,11.319,0,0,1-2.055-3.088,7.242,7.242,0,0,1-.4-1.128,9.017,9.017,0,0,0-.4-1.178,1.493,1.493,0,0,1-.05-.376,1.5,1.5,0,0,0-.05-.376,5.336,5.336,0,0,1-.25-1.3c-.035-.466-.065-.938-.1-1.4,0-.166-.01-.351-.025-.552a1.96,1.96,0,0,1,.025-.551v-.6l.15-1.2c.135-.566.25-1.123.35-1.655a7.089,7.089,0,0,1,.45-1.5,13.112,13.112,0,0,1,7.311-7.38,6.449,6.449,0,0,1,1.425-.426c.485-.085.99-.191,1.525-.326a5.71,5.71,0,0,1,.75-.05,5.721,5.721,0,0,0,.75-.05,12.773,12.773,0,0,1,4.38.577,13.537,13.537,0,0,1,3.28,1.63,10.35,10.35,0,0,1,.9.677,7.375,7.375,0,0,1,.8.777,1.182,1.182,0,0,0,.4.4q.4.556.75,1.128c.235.386.485.777.75,1.178a6.833,6.833,0,0,1,.426.928c.115.321.24.662.374,1.028a9.4,9.4,0,0,1,.4,1.354c.1.471.215.937.35,1.4a3.122,3.122,0,0,1,.075.877,3.061,3.061,0,0,0,.075.877v.552Zm-7.51-2.963a1.253,1.253,0,0,0,.074-1.228c-.185-.486-.325-.847-.425-1.078a5.253,5.253,0,0,0-1.85-2.08,6.239,6.239,0,0,0-3.2-.777.419.419,0,0,1-.35.05.594.594,0,0,0-.35,0,1.9,1.9,0,0,1-.55.126,1.876,1.876,0,0,0-.55.125,5.345,5.345,0,0,0-3.255,2.763c-.065.135-.145.311-.225.526a3.187,3.187,0,0,0-.175.652,1.556,1.556,0,0,0,.025.627.915.915,0,0,0,.326.5,2.083,2.083,0,0,0,1.1.25h6.91c.465,0,.961-.01,1.475-.025a1.17,1.17,0,0,0,1.026-.426Z" transform="translate(-64.606 -9.218)" fill="#ff3553"/>
      <path id="Trazado_4" data-name="Trazado 4" d="M292.914,34.184a4.4,4.4,0,0,1,.975.1,1.1,1.1,0,0,1,.675.451,2.382,2.382,0,0,1,.3,1.379v1.73c0,.371.01.787.025,1.253a2.3,2.3,0,0,1-.175,1.1.909.909,0,0,1-.574.452,3.394,3.394,0,0,1-.85.1c-.315,0-.65-.015-1-.05a3.117,3.117,0,0,0-.975.05,3.523,3.523,0,0,1-.7.126,2.616,2.616,0,0,0-.65.125,7.463,7.463,0,0,0-1.6.727,4.274,4.274,0,0,0-1.25,1.078q-.247.406-.526.827c-.185.286-.36.577-.525.877-.1.271-.19.547-.275.828s-.16.561-.225.827a2.717,2.717,0,0,0-.1.727,2.689,2.689,0,0,1-.1.727.973.973,0,0,0-.025.376.714.714,0,0,1-.026.326v.8a1.983,1.983,0,0,0-.05.777,6.794,6.794,0,0,1,.05.828v7.48c0,.436-.015.837-.05,1.2a1.824,1.824,0,0,1-.3.9.6.6,0,0,1-.325.226,4.516,4.516,0,0,1-.475.125h-.25a2.668,2.668,0,0,1-.55.05h-2.7a3.637,3.637,0,0,0-.626-.05h-.675c-.165-.065-.335-.125-.5-.175a.528.528,0,0,1-.35-.326,1.225,1.225,0,0,1-.225-.727c-.015-.315-.026-.642-.026-.977V36.195a1.367,1.367,0,0,1,.2-.777,1.087,1.087,0,0,1,.75-.5,6.309,6.309,0,0,1,1.2-.1h2.555a6.5,6.5,0,0,1,1.05.075.989.989,0,0,1,.7.477,1.511,1.511,0,0,1,.175.7c.015.3.04.6.075.877a3.457,3.457,0,0,0,.175.777.468.468,0,0,0,.474.351.3.3,0,0,1,.2-.1.3.3,0,0,0,.2-.1,2.864,2.864,0,0,0,.525-.577,2.332,2.332,0,0,1,.575-.577,2.174,2.174,0,0,0,.35-.326,2.178,2.178,0,0,1,.35-.326c.3-.2.609-.4.925-.6a10.41,10.41,0,0,1,.975-.551,10.15,10.15,0,0,1,1.025-.351c.35-.1.71-.2,1.075-.3a1.815,1.815,0,0,1,.575-.026q.427.023.525-.075Z" transform="translate(-75.162 -9.228)" fill="#ff3553"/>
      <path id="Trazado_5" data-name="Trazado 5" d="M308.678,21.524h23.08c.4,0,.785.015,1.15.05a1.037,1.037,0,0,1,.8.4.8.8,0,0,1,.126.351,1.188,1.188,0,0,0,.125.4v.552a3.68,3.68,0,0,1,.025.752c-.015.271-.025.522-.025.753,0,.271.01.526.025.777a3.463,3.463,0,0,1-.025.727,4.021,4.021,0,0,0-.05.753,1.207,1.207,0,0,1-.5.8,1.309,1.309,0,0,1-.75.2H319.193c-.27,0-.575-.009-.925-.025s-.7-.015-1.05,0a8.17,8.17,0,0,0-.975.1,1.517,1.517,0,0,0-.65.226,1.046,1.046,0,0,0-.425.727,6.972,6.972,0,0,0-.075,1.078v4.317a6.418,6.418,0,0,0,.2.677.793.793,0,0,0,.35.426,1.357,1.357,0,0,0,.7.226c.266.015.55.026.85.026h11.315c.235,0,.525-.01.875-.026s.69-.015,1.025,0,.64.04.925.075a1.329,1.329,0,0,1,.626.2.884.884,0,0,1,.35.6,5.767,5.767,0,0,1,.125.978c.015.35.015.712,0,1.077s-.025.688-.025.953v.7a1.642,1.642,0,0,1-.1.6,1.175,1.175,0,0,1-.4.652,1.727,1.727,0,0,1-.675.2,7.832,7.832,0,0,1-.95.05c-.35,0-.7-.01-1.05-.026s-.645-.025-.875-.025h-9.765c-.4,0-.785-.01-1.15-.025a5.209,5.209,0,0,0-1.025.05,1.888,1.888,0,0,0-.8.3,1.3,1.3,0,0,0-.475.677,2.541,2.541,0,0,0-.05.526v5.244a6.908,6.908,0,0,0,.075,1.077,1.033,1.033,0,0,0,.425.727.6.6,0,0,0,.375.176,1.771,1.771,0,0,1,.474.126h.5a1.95,1.95,0,0,0,.55.025c.2-.015.385-.025.55-.025h14.945a1.481,1.481,0,0,1,.675.15.907.907,0,0,1,.55.551,2.037,2.037,0,0,1,.126.6c.015.236.025.487.025.753v2.311c0,.4-.015.777-.05,1.128a.973.973,0,0,1-.45.777,1.18,1.18,0,0,1-.775.251H309.533a8.784,8.784,0,0,1-1.225-.075,1.035,1.035,0,0,1-.775-.477,1.37,1.37,0,0,1-.2-.777V22.752a1.087,1.087,0,0,1,.2-.7,1.165,1.165,0,0,1,.75-.5.28.28,0,0,1,.2-.025.28.28,0,0,0,.2-.025Z" transform="translate(-83.016 -5.807)" fill="#ff3553"/>
      <path id="Trazado_6" data-name="Trazado 6" d="M381.628,54.907a3.6,3.6,0,0,0,.175.5,3.865,3.865,0,0,1,.2.626,1.577,1.577,0,0,1,.025.627.6.6,0,0,1-.35.451,2.369,2.369,0,0,1-1.325.2c-.62-.035-1.125-.05-1.525-.05h-2.355c-.27,0-.51.01-.725.025a1.624,1.624,0,0,1-.626-.075,1.229,1.229,0,0,1-.8-.6,3.163,3.163,0,0,1-.375-.853,6.472,6.472,0,0,0-.325-.9c-.165-.536-.345-1.073-.525-1.6s-.375-1.052-.575-1.554c-.1-.3-.19-.577-.275-.827a5.371,5.371,0,0,0-.275-.677,1.494,1.494,0,0,0-.45-.526,1.954,1.954,0,0,0-.8-.326,4.691,4.691,0,0,1-.475-.026c-.15-.015-.31-.025-.475-.025h-7.91c-.57,0-1.175-.01-1.825-.025a2.452,2.452,0,0,0-1.525.376,1.513,1.513,0,0,0-.55.8c-.1.336-.215.671-.35,1a12.024,12.024,0,0,0-.675,1.78c-.185.622-.39,1.228-.625,1.83q-.2.5-.375,1.052a1.644,1.644,0,0,1-.575.853,1.523,1.523,0,0,1-.725.276,6.872,6.872,0,0,1-1.05.075c-.38,0-.775-.01-1.175-.026s-.75-.025-1.05-.025c-.435,0-.96.01-1.574.025a2.5,2.5,0,0,1-1.325-.226.55.55,0,0,1-.275-.451,2.081,2.081,0,0,1,.05-.626c.05-.216.11-.426.175-.627a4.017,4.017,0,0,1,.2-.5c.335-.767.64-1.554.925-2.361s.575-1.589.875-2.361a3.736,3.736,0,0,0,.3-.8,3.739,3.739,0,0,1,.3-.8c.265-.7.535-1.424.8-2.161s.535-1.453.8-2.16q.4-1,.75-1.985c.235-.652.485-1.314.75-1.98q1.147-2.76,2.125-5.57t2.13-5.57a3.976,3.976,0,0,0,.15-.452,4.007,4.007,0,0,1,.15-.451c.265-.7.535-1.423.8-2.16s.55-1.454.85-2.16a9.28,9.28,0,0,0,.425-1.128,1.8,1.8,0,0,1,.625-.928,2.354,2.354,0,0,1,.65-.25.28.28,0,0,1,.2-.025.284.284,0,0,0,.2-.026h4.4c.365,0,.74-.01,1.125-.025a1.659,1.659,0,0,1,1.65,1.1c.115.386.261.777.426,1.178.235.571.45,1.128.65,1.679s.415,1.113.65,1.679c.065.2.135.4.2.6s.135.4.2.6c.265.671.515,1.328.75,1.985s.485,1.313.75,1.985c.665,1.674,1.295,3.364,1.875,5.068s1.225,3.4,1.93,5.068a1.291,1.291,0,0,1,.126.376,1.215,1.215,0,0,0,.125.376c.2.536.4,1.073.6,1.605s.4,1.072.6,1.6a3.994,3.994,0,0,1,.3.777,7.768,7.768,0,0,0,.25.777c.435,1.073.835,2.141,1.2,3.214s.765,2.125,1.2,3.163a.518.518,0,0,1,.1.275.518.518,0,0,0,.1.276Zm-12.966-11.5a.792.792,0,0,0,.6-.853,3.548,3.548,0,0,0-.3-1.153.881.881,0,0,1-.1-.376.883.883,0,0,0-.1-.376q-.652-1.707-1.2-3.464c-.37-1.173-.785-2.341-1.25-3.514a5.513,5.513,0,0,1-.2-.627,4.136,4.136,0,0,0-.25-.7,2.724,2.724,0,0,0-.35-.577.623.623,0,0,0-.5-.251.84.84,0,0,1-.2.15.878.878,0,0,0-.2.151,3.046,3.046,0,0,0-.574,1.2,11.317,11.317,0,0,1-.426,1.354q-.6,1.406-1.075,2.863c-.32.972-.66,1.94-1.025,2.912-.135.336-.25.662-.35.978s-.2.661-.3,1.028a1.215,1.215,0,0,0,.05.9,1.045,1.045,0,0,0,.825.4c.385.035.775.05,1.175.05h4.806a4.041,4.041,0,0,0,.95-.1Z" transform="translate(-94.05 -5.807)" fill="#ff3553"/>
      <path id="Trazado_7" data-name="Trazado 7" d="M407.18,21.533h5.1c.435,0,.86.01,1.275.025a2.068,2.068,0,0,1,1.025.276.6.6,0,0,1,.226.326,4.524,4.524,0,0,1,.125.476v.251a1.8,1.8,0,0,1,.05.451V25.8c0,.236.01.461.026.677a1.656,1.656,0,0,1-.075.626,1.079,1.079,0,0,1-1,.9c-.5.036-1.1.05-1.8.05h-5.106a17.06,17.06,0,0,0-1.725.075,1.123,1.123,0,0,0-.975.928.978.978,0,0,0,0,.451.724.724,0,0,1-.05.451,3.019,3.019,0,0,0-.025.677c.015.25.025.476.025.677V54.957a10.887,10.887,0,0,1-.074,1.378,1.006,1.006,0,0,1-.625.828,2.993,2.993,0,0,1-.8.1h-4.255a9.137,9.137,0,0,1-1.025-.05,1.037,1.037,0,0,1-.725-.35,1.93,1.93,0,0,1-.25-1.028V31.314c0-.236.01-.477.026-.727a1.836,1.836,0,0,0-.075-.677.981.981,0,0,1,0-.452.566.566,0,0,0-.05-.4,1.145,1.145,0,0,0-1.025-.928c-.52-.05-1.125-.075-1.825-.075H388.92c-.37,0-.775.01-1.225.026A4.113,4.113,0,0,1,386.619,28a1.168,1.168,0,0,1-.6-.451,1.409,1.409,0,0,1-.174-.652c-.015-.266-.026-.536-.026-.8V23.639a7.919,7.919,0,0,1,.075-1.153,1.018,1.018,0,0,1,.475-.752,1.949,1.949,0,0,1,.55-.2H407.18Z" transform="translate(-104.216 -5.816)" fill="#ff3553"/>
      <path id="Trazado_8" data-name="Trazado 8" d="M131.664,10.447a22.2,22.2,0,1,0,22.14,22.2,22.17,22.17,0,0,0-22.14-22.2m0,36.5a14.3,14.3,0,1,1,14.26-14.3,14.28,14.28,0,0,1-14.26,14.3" transform="translate(-29.584 -2.822)" fill="#ff3553"/>
      <path id="Trazado_9" data-name="Trazado 9" d="M38.225,7c-3.313-.172-17.092-.117-18.316,14.833.052,11.156,8.878,14.994,14.864,15A2.615,2.615,0,0,0,37.1,38.832l7.689-.051a1.059,1.059,0,0,0-.017-2.071l-5.529.036a.95.95,0,0,1-.012-1.828l5.337-.036a1.021,1.021,0,0,0,1.024-1.037s-.038-1.04-1-1.036l-5.377.036a.986.986,0,0,1-.7-.912.925.925,0,0,1,.686-.917l5.524-.036a1.035,1.035,0,0,0,.836-1.048,1.022,1.022,0,0,0-.838-1.023l-7.629.051c-1.044-.007-1.85.633-2.365,2.043-.958.039-8.458.047-8.613-9.055,1.2-10.215,12.258-8.52,12.258-8.52s13.8.961,15.339,15.7a3.9,3.9,0,0,1,.017.569c-1,23.518-23.867,23.593-23.867,23.593C6.094,52.258,6.334,29.411,6.334,29.411,6.992,10.322,23.444,6.321,24.562,6.07c.06.01,5.008-1.945,6.473-2.536l.343-.1a.4.4,0,0,0,.326-.366.4.4,0,0,0-.27-.463c-2.109-.82-6.415-2.439-6.96-2.6a.225.225,0,0,0-.1,0C8.149,2.616-.061,17.836,0,29.315.032,47.584,13.122,59.161,29.882,59.2c0,0,29.954,0,29.922-29.825C59.24,16.709,49.158,7.043,38.225,7ZM28.112,3.849C27.08,4.26,24.761,5.2,24.761,5.2V.858s2.286.888,3.306,1.287q.022.853.047,1.7Z" transform="translate(0 0)" fill="#ff3553"/>
    </g>
  </g>
</svg>
