<svg id="Grupo_10" data-name="Grupo 10" xmlns="http://www.w3.org/2000/svg" xmlns:xlink="http://www.w3.org/1999/xlink" width="53.6" height="59" viewBox="0 0 53.6 59">
  <defs>
    <clipPath id="clip-path">
      <rect id="Rectángulo_23" data-name="Rectángulo 23" width="53.6" height="59" fill="none"/>
    </clipPath>
    <linearGradient id="linear-gradient" x1="-0.01" y1="11.925" x2="0.01" y2="11.925" gradientUnits="objectBoundingBox">
      <stop offset="0" stop-color="#ff4aa5"/>
      <stop offset="1" stop-color="#ff160e"/>
    </linearGradient>
    <linearGradient id="linear-gradient-2" x1="-0.141" y1="1.009" x2="-0.117" y2="1.009" xlink:href="#linear-gradient"/>
    <linearGradient id="linear-gradient-3" x1="-7.55" y1="1.693" x2="-7.3" y2="1.693" xlink:href="#linear-gradient"/>
    <linearGradient id="linear-gradient-4" x1="-4.85" y1="1.693" x2="-4.6" y2="1.693" xlink:href="#linear-gradient"/>
  </defs>
  <g id="Grupo_9" data-name="Grupo 9" clip-path="url(#clip-path)">
    <path id="Trazado_113" data-name="Trazado 113" d="M2.5,11.3H51.1a2,2,0,0,1,0,4H2.5a2,2,0,0,1,0-4Z" fill="url(#linear-gradient)"/>
    <path id="Trazado_114" data-name="Trazado 114" d="M14,13.3V7.9a7.405,7.405,0,0,1,2.167-5.232h0A7.405,7.405,0,0,1,21.4.5H32.2a7.405,7.405,0,0,1,5.232,2.167h0A7.405,7.405,0,0,1,39.6,7.9v5.4a2,2,0,0,1-4,0V7.9a3.4,3.4,0,0,0-1-2.4h0a3.4,3.4,0,0,0-2.4-1H21.4a3.4,3.4,0,0,0-2.4,1h0a3.4,3.4,0,0,0-1,2.4v5.4a2,2,0,0,1-4,0Zm31.7,0h2V51.1a7.4,7.4,0,0,1-2.167,5.232h0A7.405,7.405,0,0,1,40.3,58.5h-27a7.405,7.405,0,0,1-5.232-2.167h0A7.4,7.4,0,0,1,5.9,51.1V13.3a2,2,0,0,1,2-2H45.7a2,2,0,0,1,2,2h-2v2H9.9V51.1a3.4,3.4,0,0,0,1,2.4h0a3.4,3.4,0,0,0,2.4,1h27a3.4,3.4,0,0,0,2.4-1h0a3.4,3.4,0,0,0,1-2.4V13.3h2v0Z" fill="url(#linear-gradient-2)"/>
    <path id="Trazado_115" data-name="Trazado 115" d="M34.2,26.8V43a2,2,0,1,1-4,0V26.8a2,2,0,0,1,4,0" fill="url(#linear-gradient-3)"/>
    <path id="Trazado_116" data-name="Trazado 116" d="M23.4,26.8V43a2,2,0,0,1-4,0V26.8a2,2,0,0,1,4,0" fill="url(#linear-gradient-4)"/>
  </g>
</svg>
