<svg xmlns="http://www.w3.org/2000/svg" xmlns:xlink="http://www.w3.org/1999/xlink" width="33.71" height="50.65" viewBox="0 0 41.612 62.534">
  <defs>
    <clipPath id="clip-path">
      <rect id="Rectángulo_24" data-name="Rectángulo 24" width="41.612" height="62.534" transform="translate(0 0)" fill="none"/>
    </clipPath>
    <linearGradient id="linear-gradient" x1="-0.012" y1="1.27" x2="0.012" y2="1.27" gradientUnits="objectBoundingBox">
      <stop offset="0" stop-color="#ff4aa5"/>
      <stop offset="1" stop-color="#ff160e"/>
    </linearGradient>
    <linearGradient id="linear-gradient-2" x1="-2.374" y1="2.607" x2="-2.247" y2="2.607" xlink:href="#linear-gradient"/>
    <linearGradient id="linear-gradient-3" x1="-0.252" y1="1.008" x2="-0.216" y2="1.008" xlink:href="#linear-gradient"/>
  </defs>
  <g id="Grupo_12" data-name="Grupo 12" transform="translate(0 0)">
    <g id="Grupo_11" data-name="Grupo 11" clip-path="url(#clip-path)">
      <path id="Trazado_117" data-name="Trazado 117" d="M20.806,49.573v-2A16.306,16.306,0,1,0,4.5,31.267,16.327,16.327,0,0,0,20.806,47.573v4A20.306,20.306,0,1,1,41.112,31.267,20.307,20.307,0,0,1,20.806,51.573Z" fill="url(#linear-gradient)"/>
      <path id="Trazado_118" data-name="Trazado 118" d="M22.806,23.421v7.017l3.337,3.337A2,2,0,0,1,23.315,36.6l-3.923-3.923-.586-1.415V23.421a2,2,0,0,1,4,0Z" fill="url(#linear-gradient-2)"/>
      <path id="Trazado_119" data-name="Trazado 119" d="M34.592,45.44l-.916,10.016v0a7.229,7.229,0,0,1-2.331,4.7l0,0a7.242,7.242,0,0,1-4.869,1.883H15.111a7.233,7.233,0,0,1-4.866-1.884h0a7.241,7.241,0,0,1-2.336-4.693h0L6.994,45.44a2,2,0,1,1,3.984-.364l.915,10.016v0a3.238,3.238,0,0,0,1.045,2.1h0a3.238,3.238,0,0,0,2.175.843H26.475a3.243,3.243,0,0,0,2.179-.844l0,0a3.228,3.228,0,0,0,1.041-2.1v0l.916-10.016a2,2,0,1,1,3.983.365ZM7.02,17.094,7.935,7.078h0A7.227,7.227,0,0,1,10.26,2.394h0A7.237,7.237,0,0,1,15.126.5h11.4A7.236,7.236,0,0,1,31.4,2.382h0a7.24,7.24,0,0,1,2.333,4.7h0l.915,10.016a2,2,0,0,1-3.984.364L29.746,7.442v0a3.233,3.233,0,0,0-1.041-2.1h0A3.242,3.242,0,0,0,26.527,4.5H15.135a3.243,3.243,0,0,0-2.177.847h0A3.224,3.224,0,0,0,11.919,7.44v0L11,17.458a2,2,0,0,1-3.984-.364Z" fill="url(#linear-gradient-3)"/>
    </g>
  </g>
</svg>
