<svg xmlns="http://www.w3.org/2000/svg" xmlns:xlink="http://www.w3.org/1999/xlink" width="57.664" height="48.079" viewBox="0 0 57.664 48.079">
  <defs>
    <linearGradient id="linear-gradient" x1="-0.746" y1="1.918" x2="-0.703" y2="1.918" gradientUnits="objectBoundingBox">
      <stop offset="0" stop-color="#ff4aa5"/>
      <stop offset="1" stop-color="#ff160e"/>
    </linearGradient>
    <clipPath id="clip-path">
      <rect id="Rectángulo_27" data-name="Rectángulo 27" width="57.664" height="48.079" transform="translate(0 0)" fill="none"/>
    </clipPath>
    <linearGradient id="linear-gradient-2" x1="-6.71" y1="1.02" x2="-6.46" y2="1.02" xlink:href="#linear-gradient"/>
    <linearGradient id="linear-gradient-3" x1="-0.009" y1="1.165" x2="0.009" y2="1.165" xlink:href="#linear-gradient"/>
  </defs>
  <g id="Grupo_20" data-name="Grupo 20" transform="translate(0 0)">
    <path id="Trazado_127" data-name="Trazado 127" d="M37,35.025l-8.159-8.16-8.161,8.16A2,2,0,0,1,17.852,32.2l9.575-9.574a2,2,0,0,1,2.829,0L39.83,32.2A2,2,0,0,1,37,35.025Z" fill="url(#linear-gradient)"/>
    <g id="Grupo_19" data-name="Grupo 19">
      <g id="Grupo_18" data-name="Grupo 18" clip-path="url(#clip-path)">
        <path id="Trazado_128" data-name="Trazado 128" d="M30.841,24.036V45.579a2,2,0,0,1-4,0V24.036a2,2,0,0,1,4,0" fill="url(#linear-gradient-2)"/>
        <path id="Trazado_129" data-name="Trazado 129" d="M47.967,37.578a9.968,9.968,0,0,0,4.365-4.77h0a9.967,9.967,0,0,0,.523-6.443h0A9.967,9.967,0,0,0,43.2,18.858H40.187a2,2,0,0,1-1.937-1.5,17.094,17.094,0,0,0-3.535-6.812l0,0a17.131,17.131,0,0,0-6.154-4.589h0A17.186,17.186,0,0,0,21.641,4.5q-.312,0-.624.011h0A17.2,17.2,0,0,0,13.6,6.505h0a17.2,17.2,0,0,0-5.8,5.03h0a17.187,17.187,0,0,0-3.028,7.058v0a17.176,17.176,0,0,0,.358,7.672h0A17.183,17.183,0,0,0,8.8,33.008a2,2,0,1,1-3,2.646,21.188,21.188,0,0,1-4.52-8.318h0a21.2,21.2,0,0,1-.442-9.458v0a21.182,21.182,0,0,1,3.732-8.7h0a21.174,21.174,0,0,1,7.154-6.2h0A21.187,21.187,0,0,1,20.87.514h0C21.128.5,21.385.5,21.641.5a21.187,21.187,0,0,1,8.53,1.793h0a21.141,21.141,0,0,1,7.59,5.661v0a21.1,21.1,0,0,1,4.362,8.406l-1.936.5v-2H43.2a13.968,13.968,0,0,1,13.53,10.521h0A13.972,13.972,0,0,1,56,34.408h0a13.966,13.966,0,0,1-6.118,6.683,2,2,0,1,1-1.914-3.512Z" fill="url(#linear-gradient-3)"/>
        <path id="Trazado_130" data-name="Trazado 130" d="M37,35.025l-8.159-8.16-8.161,8.16A2,2,0,0,1,17.852,32.2l9.575-9.574a2,2,0,0,1,2.829,0L39.83,32.2A2,2,0,0,1,37,35.025Z" fill="url(#linear-gradient)"/>
      </g>
    </g>
  </g>
</svg>
