<svg xmlns="http://www.w3.org/2000/svg" xmlns:xlink="http://www.w3.org/1999/xlink" width="58.622" height="58.622" viewBox="0 0 58.622 58.622">
  <defs>
    <clipPath id="clip-path">
      <rect id="Rectángulo_26" data-name="Rectángulo 26" width="58.622" height="58.622" transform="translate(0 0)" fill="none"/>
    </clipPath>
    <linearGradient id="linear-gradient" x1="-0.009" y1="1.009" x2="0.009" y2="1.009" gradientUnits="objectBoundingBox">
      <stop offset="0" stop-color="#ff4aa5"/>
      <stop offset="1" stop-color="#ff160e"/>
    </linearGradient>
    <linearGradient id="linear-gradient-2" x1="-0.652" y1="2.772" x2="-0.612" y2="2.772" xlink:href="#linear-gradient"/>
    <linearGradient id="linear-gradient-3" x1="-8.779" y1="9.838" x2="-8.531" y2="9.838" xlink:href="#linear-gradient"/>
    <linearGradient id="linear-gradient-4" x1="-4.785" y1="9.838" x2="-4.536" y2="9.838" xlink:href="#linear-gradient"/>
  </defs>
  <g id="Grupo_17" data-name="Grupo 17" transform="translate(0 0)">
    <g id="Grupo_16" data-name="Grupo 16" clip-path="url(#clip-path)">
      <path id="Trazado_123" data-name="Trazado 123" d="M29.311,56.122v-2A24.811,24.811,0,1,0,4.5,29.311,24.843,24.843,0,0,0,29.311,54.122v4A28.811,28.811,0,1,1,58.122,29.311,28.811,28.811,0,0,1,29.311,58.122Z" fill="url(#linear-gradient)"/>
      <path id="Trazado_124" data-name="Trazado 124" d="M20.186,33.473c.01.026,3.57,4.64,9.124,4.562,5.556.078,9.042-4.613,9.126-4.562a2,2,0,1,1,3.2,2.4A16.394,16.394,0,0,1,29.31,42.035a16.392,16.392,0,0,1-12.323-6.162,2,2,0,1,1,3.2-2.4Z" fill="url(#linear-gradient-2)"/>
      <path id="Trazado_125" data-name="Trazado 125" d="M37.354,19.268h.027a2,2,0,0,1,0,4h-.027a2,2,0,0,1,0-4" fill="url(#linear-gradient-3)"/>
      <path id="Trazado_126" data-name="Trazado 126" d="M21.268,19.268H21.3a2,2,0,0,1,0,4h-.027a2,2,0,0,1,0-4" fill="url(#linear-gradient-4)"/>
    </g>
  </g>
</svg>
